<?xml version="1.0" encoding="UTF-8"?>
<svg viewBox="-6.95 -10.95 31.9 21.9" height="21.9mm" width="31.9mm" xmlns:svgjs="http://svgjs.com/svgjs" xmlns:xlink="http://www.w3.org/1999/xlink" version="1.1" xmlns="http://www.w3.org/2000/svg" id="SvgjsSvg1185">
  <defs id="SvgjsDefs1186">
  </defs>
  <defs id="SvgjsDefs1186">
  </defs>
  <g id="SvgjsG1187">
    <g transform="matrix(1,0,0,1,14,0)" id="SvgjsG1188">
      <g fill="none" stroke-width="0.04" stroke="blue" id="SvgjsG1189">
      </g>
      <g fill="none" stroke-width="0.1" stroke="black" id="SvgjsG1190">
        <path d="M-9.104300581943297 2.1770697868986515  L-9.040520734760543 2.1268008343201 L-8.978015742076439 2.079610021765537 L-8.859022469843866 1.995448453556616 L-8.748843077316518 1.9242442509959214 L-8.64907516417963 1.8655175440534184 L-8.558200696358663 1.8170510432693092 L-8.481227754769021 1.7800425906802357 L-8.389350129413653 1.7410660675020628 L-8.362228559572156 1.728221315681465 L-8.339313711063475 1.7150724329219222 L-8.320611983043975 1.7018134786236139 L-8.306125136037819 1.6886072314723515 L-8.295825386336581 1.675611260708617 L-8.289699436941564 1.6630161527690366 L-8.28772935222187 1.6509812133758681 L-8.293294848443256 1.6199360051818532 L-8.321625512953156 1.467327101285562 L-8.347198715754626 1.3142319824918038 L-8.35258694658047 1.2831555176258085 L-8.358554412350056 1.2725201825446357 L-8.368618702414558 1.2627798506458994 L-8.382742184988023 1.2540903546883049 L-8.40087217076163 1.2466353351813713 L-8.422980876026955 1.2405723613655801 L-8.44901097284298 1.236053793036084 L-8.47889007574583 1.233259797738848 L-8.578557558351337 1.228057845116893 L-8.663546099822083 1.219607571826923 L-8.765516686195967 1.2051448571935524 L-8.879353574687428 1.1840824399870062 L-9.007241608373251 1.1548559478955158 L-9.147843659834697 1.1164680393195976 L-9.222719348695792 1.093501147549571 L-9.299845794814027 1.068077776231604 L-9.445592927664787 1.015239775760415 A9.5 9.5 0 0 1 -9.478387683917342 0.6403939965374047 L-9.34403 0.5630500000000006 L-9.27249 0.5246200000000005 L-9.20274 0.48900000000000055 L-9.07094 0.42678000000000055 L-8.95007 0.37579000000000057 L-8.84162 0.3352800000000006 L-8.74371 0.30333000000000054 L-8.66148 0.28025000000000055 L-8.56423 0.2578200000000005 L-8.53529 0.24988000000000052 L-8.51044 0.24091000000000054 L-8.48972 0.23110000000000053 L-8.47316 0.22061000000000053 L-8.46076 0.20960000000000054 L-8.45254 0.19826000000000052 L-8.44851 0.18675000000000053 L-8.4486 0.15521000000000051 L-8.45 5.174132726397567e-16 L-8.4486 -0.15520999999999946 L-8.44851 -0.18674999999999947 L-8.45254 -0.19825999999999946 L-8.46076 -0.20959999999999948 L-8.47316 -0.22060999999999947 L-8.48972 -0.23109999999999947 L-8.51044 -0.24090999999999949 L-8.53529 -0.24987999999999946 L-8.56423 -0.2578199999999995 L-8.66148 -0.28024999999999944 L-8.74371 -0.30332999999999943 L-8.84162 -0.33527999999999947 L-8.95007 -0.37578999999999946 L-9.07094 -0.42677999999999944 L-9.20274 -0.48899999999999944 L-9.27249 -0.5246199999999994 L-9.34403 -0.5630499999999995 L-9.478387683917342 -0.6403939965374036 A9.5 9.5 0 0 1 -9.445592927664787 -1.015239775760414 L-9.299845794814027 -1.0680777762316032 L-9.222719348695792 -1.0935011475495697 L-9.147843659834697 -1.1164680393195965 L-9.007241608373251 -1.1548559478955147 L-8.879353574687428 -1.1840824399870054 L-8.765516686195967 -1.2051448571935515 L-8.663546099822083 -1.2196075718269221 L-8.578557558351337 -1.228057845116892 L-8.47889007574583 -1.233259797738847 L-8.44901097284298 -1.236053793036083 L-8.422980876026955 -1.240572361365579 L-8.40087217076163 -1.2466353351813702 L-8.382742184988023 -1.2540903546883038 L-8.368618702414558 -1.2627798506458985 L-8.358554412350056 -1.2725201825446348 L-8.35258694658047 -1.2831555176258076 L-8.347198715754626 -1.3142319824918025 L-8.321625512953156 -1.4673271012855609 L-8.293294848443256 -1.6199360051818523 L-8.28772935222187 -1.6509812133758672 L-8.289699436941564 -1.6630161527690357 L-8.295825386336581 -1.6756112607086162 L-8.306125136037819 -1.6886072314723504 L-8.320611983043975 -1.7018134786236128 L-8.339313711063475 -1.7150724329219211 L-8.362228559572156 -1.728221315681464 L-8.389350129413653 -1.741066067502062 L-8.481227754769021 -1.7800425906802346 L-8.558200696358663 -1.8170510432693083 L-8.64907516417963 -1.8655175440534175 L-8.748843077316518 -1.9242442509959206 L-8.859022469843866 -1.9954484535566148 L-8.978015742076439 -2.0796100217655358 L-9.040520734760543 -2.126800834320099 L-9.104300581943297 -2.1770697868986506 L-9.223186426689661 -2.2765697213054312 A9.5 9.5 0 0 1 -9.125798610005784 -2.640026001207867 L-8.97309048110167 -2.6667525497058424 L-8.89272103690264 -2.6783968160691263 L-8.814994719097562 -2.6880127622245555 L-8.669862738360257 -2.7014021821995313 L-8.538842484177689 -2.7079771342096315 L-8.423077583447336 -2.7089519977339998 L-8.32014473536693 -2.705487984735093 L-8.23497998625175 -2.699051774037162 L-8.135923367065525 -2.686867620582969 L-8.106013022681974 -2.684430717044164 L-8.079593740369813 -2.6843605592909707 L-8.056768091661104 -2.686492286531173 L-8.037618990557403 -2.690685808549744 L-8.022201160281643 -2.6967907745273587 L-8.010598378513471 -2.704635483268934 L-8.002874765402025 -2.7140730041565773 L-7.992172022417404 -2.7437416912290638 L-7.940402645640925 -2.8900702111019005 L-7.88600212952625 -3.0354410745734257 L-7.875130241869887 -3.065048198020114 L-7.874980551281976 -3.0772424012629624 L-7.878826316199523 -3.090709921160811 L-7.886712862919252 -3.1052969866929025 L-7.89868638141598 -3.1208182158584195 L-7.914801594912639 -3.137123257838037 L-7.935085035853539 -3.1540515012081296 L-7.959564100361076 -3.1714107235650144 L-8.04327769591771 -3.2257494879876636 L-8.11265479521698 -3.2755619100610724 L-8.193732556138874 -3.3390722815281983 L-8.281786984856982 -3.4142313141399043 L-8.3779280248232 -3.5034862155975515 L-8.480499018925059 -3.6070321453531737 L-8.533859821719615 -3.664359901502533 L-8.587941597702633 -3.724940409972854 L-8.687743317044543 -3.8435730270914577 A9.5 9.5 0 0 1 -8.528721519458669 -4.184596372526233 L-8.373692353723909 -4.18439939639917 L-8.292521896337169 -4.181910752666606 L-8.214306624423205 -4.177883577549408 L-8.069054476204416 -4.165867678172876 L-7.938882985648991 -4.149591313511844 L-7.824707530608569 -4.130449002619152 L-7.723939983324035 -4.109163514270064 L-7.64118671437084 -4.088036380589409 L-7.545750743852804 -4.058836330396295 L-7.516717968667281 -4.051242572102343 L-7.490712237383238 -4.046585819974289 L-7.467863191016825 -4.044721529185415 L-7.448276810330155 -4.045526135671113 L-7.432033095323228 -4.04886107536678 L-7.41924436650412 -4.054571803445696 L-7.409999284126869 -4.0625247558432545 L-7.3943072264132095 -4.089884197078616 L-7.317914661978507 -4.224999999999998 L-7.239097226413209 -4.358715802921381 L-7.223249284126869 -4.385985244156743 L-7.220984366504121 -4.397968196554301 L-7.222433095323228 -4.411898924633217 L-7.227666810330154 -4.427633864328883 L-7.236763191016825 -4.444998470814582 L-7.249802237383238 -4.463854180025707 L-7.266837968667282 -4.484047427897654 L-7.287930743852804 -4.505393669603702 L-7.3609367143708395 -4.573443619410587 L-7.420609983324034 -4.634546485729932 L-7.48942753060857 -4.7111709973808455 L-7.563092985648991 -4.800478686488153 L-7.642274476204417 -4.905072321827121 L-7.725306624423206 -5.024856422450589 L-7.767901896337169 -5.09057924733339 L-7.8106423537239085 -5.159630603600826 L-7.888327522921265 -5.2937913113911055 A9.5 9.5 0 0 1 -7.672503541284128 -5.60201990057333 L-7.51986382147103 -5.574905384841173 L-7.440358674170045 -5.5583594471932605 L-7.364030979605461 -5.540811514481523 L-7.223072076927684 -5.5037553927757 L-7.097704544869976 -5.465122260547525 L-6.988587698945322 -5.42644440466777 L-6.893047223390058 -5.387984189761012 L-6.815219850800817 -5.352808070363673 L-6.7263043026222284 -5.307479352180817 L-6.699031242817454 -5.2949594716348525 L-6.6742292335470585 -5.285857618188919 L-6.652051046234609 -5.280053954903211 L-6.632622508230948 -5.27744519829512 L-6.616046465553623 -5.277908781253747 L-6.60246036873734 -5.281312011087094 L-6.5919747242440785 -5.2875387485603556 L-6.571770147034446 -5.311757641181201 L-6.473075544355364 -5.431555301851257 L-6.372236017235551 -5.549553157214193 L-6.351893552026157 -5.5736563480652945 L-6.347582225744434 -5.5850639536726305 L-6.346589899573026 -5.5990346118092225 L-6.3490117590850526 -5.615439327488075 L-6.35495461303749 -5.634119696512803 L-6.36452130744789 -5.654953151772505 L-6.377791707000509 -5.677797842527992 L-6.394857299563462 -5.702482508830686 L-6.454937395571513 -5.78217598073186 L-6.503093692097622 -5.852712711623571 L-6.557560039393916 -5.940123166445632 L-6.614598233181767 -6.040865943106886 L-6.674414284803641 -6.157620287644335 L-6.735384697332027 -6.2900029798518835 L-6.76592020258254 -6.362123918691418 L-6.796020694203018 -6.437548032237455 L-6.8492288887003525 -6.583160425481795 A9.5 9.5 0 0 1 -6.583160425481796 -6.849228888700351 L-6.437548032237456 -6.796020694203017 L-6.3621239186914185 -6.765920202582539 L-6.290002979851884 -6.735384697332025 L-6.1576202876443356 -6.67441428480364 L-6.040865943106887 -6.614598233181766 L-5.940123166445633 -6.557560039393915 L-5.852712711623572 -6.50309369209762 L-5.782175980731861 -6.454937395571512 L-5.702482508830687 -6.394857299563461 L-5.677797842527993 -6.377791707000508 L-5.654953151772506 -6.364521307447889 L-5.634119696512804 -6.354954613037489 L-5.615439327488076 -6.349011759085052 L-5.599034611809223 -6.346589899573025 L-5.585063953672631 -6.347582225744433 L-5.573656348065295 -6.351893552026156 L-5.549553157214194 -6.37223601723555 L-5.431555301851258 -6.473075544355363 L-5.3117576411812015 -6.571770147034445 L-5.287538748560356 -6.591974724244078 L-5.281312011087095 -6.602460368737339 L-5.277908781253748 -6.616046465553622 L-5.277445198295121 -6.632622508230947 L-5.280053954903212 -6.652051046234608 L-5.28585761818892 -6.674229233547058 L-5.294959471634853 -6.699031242817453 L-5.307479352180818 -6.726304302622228 L-5.352808070363674 -6.815219850800816 L-5.387984189761013 -6.893047223390056 L-5.4264444046677704 -6.988587698945321 L-5.465122260547526 -7.097704544869975 L-5.503755392775701 -7.223072076927683 L-5.540811514481524 -7.364030979605461 L-5.558359447193261 -7.440358674170044 L-5.574905384841174 -7.519863821471029 L-5.602019900573331 -7.672503541284128 A9.5 9.5 0 0 1 -5.29379131139111 -7.888327522921262 L-5.1596306036008315 -7.810642353723907 L-5.090579247333395 -7.767901896337167 L-5.024856422450593 -7.725306624423204 L-4.9050723218271255 -7.642274476204414 L-4.800478686488157 -7.563092985648989 L-4.711170997380849 -7.489427530608567 L-4.6345464857299365 -7.420609983324033 L-4.573443619410591 -7.360936714370837 L-4.5053936696037065 -7.287930743852802 L-4.484047427897658 -7.2668379686672795 L-4.463854180025711 -7.2498022373832365 L-4.444998470814586 -7.2367631910168235 L-4.427633864328888 -7.2276668103301525 L-4.411898924633221 -7.222433095323226 L-4.397968196554306 -7.220984366504118 L-4.385985244156747 -7.223249284126867 L-4.3587158029213855 -7.239097226413207 L-4.225000000000002 -7.317914661978505 L-4.089884197078621 -7.394307226413208 L-4.062524755843259 -7.409999284126867 L-4.0545718034457 -7.419244366504118 L-4.048861075366784 -7.432033095323226 L-4.045526135671118 -7.448276810330153 L-4.044721529185419 -7.467863191016823 L-4.046585819974293 -7.490712237383236 L-4.051242572102347 -7.5167179686672805 L-4.058836330396299 -7.545750743852802 L-4.088036380589413 -7.641186714370837 L-4.109163514270069 -7.723939983324033 L-4.130449002619157 -7.824707530608568 L-4.1495913135118485 -7.9388829856489895 L-4.16586767817288 -8.069054476204414 L-4.177883577549412 -8.214306624423203 L-4.18191075266661 -8.292521896337167 L-4.184399396399176 -8.373692353723907 L-4.184596372526239 -8.528721519458667 A9.5 9.5 0 0 1 -3.843573027091459 -8.687743317044543 L-3.724940409972856 -8.587941597702633 L-3.664359901502534 -8.533859821719613 L-3.607032145353175 -8.480499018925059 L-3.503486215597553 -8.377928024823198 L-3.4142313141399057 -8.281786984856982 L-3.3390722815282 -8.193732556138873 L-3.275561910061074 -8.11265479521698 L-3.225749487987665 -8.043277695917709 L-3.171410723565016 -7.959564100361076 L-3.154051501208131 -7.935085035853537 L-3.1371232578380384 -7.914801594912638 L-3.120818215858421 -7.898686381415979 L-3.105296986692904 -7.886712862919251 L-3.0907099211608124 -7.878826316199522 L-3.0772424012629638 -7.8749805512819755 L-3.0650481980201154 -7.875130241869886 L-3.0354410745734275 -7.886002129526249 L-2.890070211101902 -7.9404026456409245 L-2.7437416912290655 -7.992172022417403 L-2.7140730041565786 -8.002874765402023 L-2.704635483268935 -8.01059837851347 L-2.69679077452736 -8.022201160281643 L-2.690685808549745 -8.037618990557403 L-2.6864922865311742 -8.056768091661104 L-2.684360559290972 -8.079593740369813 L-2.6844307170441652 -8.106013022681973 L-2.6868676205829707 -8.135923367065525 L-2.699051774037163 -8.234979986251748 L-2.7054879847350946 -8.32014473536693 L-2.7089519977340015 -8.423077583447334 L-2.707977134209633 -8.538842484177689 L-2.7014021821995327 -8.669862738360255 L-2.688012762224557 -8.814994719097562 L-2.678396816069128 -8.892721036902639 L-2.666752549705844 -8.97309048110167 L-2.640026001207869 -9.125798610005784 A9.5 9.5 0 0 1 -2.276569721305431 -9.223186426689661 L-2.17706978689865 -9.104300581943297 L-2.1268008343200986 -9.040520734760543 L-2.0796100217655358 -8.978015742076439 L-1.9954484535566146 -8.859022469843866 L-1.9242442509959203 -8.748843077316518 L-1.8655175440534175 -8.64907516417963 L-1.817051043269308 -8.558200696358663 L-1.7800425906802344 -8.481227754769021 L-1.7410660675020617 -8.389350129413653 L-1.7282213156814639 -8.362228559572156 L-1.715072432921921 -8.339313711063475 L-1.7018134786236125 -8.320611983043975 L-1.6886072314723501 -8.306125136037819 L-1.675611260708616 -8.295825386336581 L-1.6630161527690355 -8.289699436941564 L-1.650981213375867 -8.28772935222187 L-1.6199360051818519 -8.293294848443256 L-1.4673271012855607 -8.321625512953156 L-1.3142319824918025 -8.347198715754626 L-1.2831555176258074 -8.35258694658047 L-1.2725201825446346 -8.358554412350056 L-1.2627798506458983 -8.368618702414558 L-1.2540903546883035 -8.382742184988023 L-1.24663533518137 -8.40087217076163 L-1.2405723613655788 -8.422980876026955 L-1.2360537930360829 -8.44901097284298 L-1.2332597977388469 -8.47889007574583 L-1.2280578451168918 -8.578557558351337 L-1.219607571826922 -8.663546099822083 L-1.205144857193551 -8.765516686195967 L-1.1840824399870051 -8.879353574687428 L-1.1548559478955145 -9.007241608373251 L-1.1164680393195963 -9.147843659834697 L-1.0935011475495697 -9.222719348695792 L-1.0680777762316027 -9.299845794814027 L-1.0152397757604137 -9.445592927664787 A9.5 9.5 0 0 1 -0.6403939965374053 -9.478387683917342 L-0.5630500000000012 -9.34403 L-0.5246200000000011 -9.27249 L-0.4890000000000011 -9.20274 L-0.4267800000000011 -9.07094 L-0.3757900000000011 -8.95007 L-0.33528000000000113 -8.84162 L-0.30333000000000104 -8.74371 L-0.28025000000000105 -8.66148 L-0.25782000000000105 -8.56423 L-0.24988000000000105 -8.53529 L-0.24091000000000107 -8.51044 L-0.23110000000000103 -8.48972 L-0.22061000000000103 -8.47316 L-0.20960000000000104 -8.46076 L-0.19826000000000102 -8.45254 L-0.18675000000000103 -8.44851 L-0.155210000000001 -8.4486 L-1.0348265452795135e-15 -8.45 L0.15520999999999896 -8.4486 L0.18674999999999897 -8.44851 L0.19825999999999896 -8.45254 L0.20959999999999898 -8.46076 L0.22060999999999897 -8.47316 L0.23109999999999897 -8.48972 L0.24090999999999896 -8.51044 L0.24987999999999894 -8.53529 L0.25781999999999894 -8.56423 L0.28024999999999894 -8.66148 L0.30332999999999893 -8.74371 L0.3352799999999989 -8.84162 L0.3757899999999989 -8.95007 L0.4267799999999989 -9.07094 L0.4889999999999989 -9.20274 L0.5246199999999989 -9.27249 L0.5630499999999989 -9.34403 L0.640393996537403 -9.478387683917342 A9.5 9.5 0 0 1 1.0152397757604112 -9.445592927664787 L1.0680777762316005 -9.299845794814027 L1.0935011475495673 -9.222719348695794 L1.116468039319594 -9.147843659834697 L1.1548559478955123 -9.007241608373251 L1.184082439987003 -8.879353574687428 L1.2051448571935488 -8.76551668619597 L1.2196075718269197 -8.663546099822085 L1.2280578451168895 -8.578557558351337 L1.2332597977388446 -8.478890075745833 L1.2360537930360807 -8.449010972842983 L1.2405723613655768 -8.422980876026955 L1.246635335181368 -8.400872170761632 L1.2540903546883015 -8.382742184988023 L1.262779850645896 -8.368618702414558 L1.2725201825446324 -8.358554412350056 L1.2831555176258054 -8.352586946580471 L1.3142319824918003 -8.347198715754628 L1.4673271012855587 -8.321625512953158 L1.61993600518185 -8.293294848443258 L1.650981213375865 -8.287729352221872 L1.6630161527690333 -8.289699436941564 L1.6756112607086138 -8.295825386336581 L1.6886072314723481 -8.306125136037819 L1.7018134786236105 -8.320611983043976 L1.715072432921919 -8.339313711063475 L1.7282213156814616 -8.362228559572157 L1.7410660675020595 -8.389350129413655 L1.7800425906802322 -8.481227754769021 L1.8170510432693059 -8.558200696358664 L1.8655175440534153 -8.649075164179632 L1.9242442509959181 -8.748843077316518 L1.9954484535566124 -8.859022469843866 L2.0796100217655336 -8.978015742076439 L2.126800834320097 -9.040520734760545 L2.177069786898648 -9.104300581943297 L2.2765697213054286 -9.223186426689661 A9.5 9.5 0 0 1 2.6400260012078625 -9.125798610005786 L2.666752549705838 -8.973090481101671 L2.6783968160691214 -8.892721036902639 L2.688012762224551 -8.814994719097564 L2.701402182199527 -8.669862738360258 L2.707977134209627 -8.53884248417769 L2.7089519977339953 -8.423077583447336 L2.705487984735089 -8.320144735366933 L2.6990517740371573 -8.234979986251748 L2.686867620582965 -8.135923367065526 L2.68443071704416 -8.106013022681974 L2.6843605592909663 -8.079593740369813 L2.686492286531169 -8.056768091661105 L2.6906858085497394 -8.037618990557403 L2.6967907745273543 -8.022201160281645 L2.7046354832689294 -8.010598378513471 L2.714073004156573 -8.002874765402025 L2.7437416912290598 -7.992172022417405 L2.890070211101896 -7.940402645640926 L3.0354410745734217 -7.886002129526251 L3.0650481980201096 -7.875130241869888 L3.077242401262958 -7.874980551281977 L3.0907099211608076 -7.8788263161995244 L3.105296986692898 -7.886712862919253 L3.1208182158584155 -7.898686381415981 L3.1371232578380326 -7.91480159491264 L3.1540515012081256 -7.935085035853539 L3.1714107235650104 -7.959564100361079 L3.225749487987659 -8.043277695917713 L3.275561910061068 -8.112654795216981 L3.339072281528194 -8.193732556138874 L3.4142313141399 -8.281786984856984 L3.503486215597547 -8.377928024823202 L3.6070321453531693 -8.48049901892506 L3.6643599015025283 -8.533859821719616 L3.7249404099728496 -8.587941597702635 L3.843573027091453 -8.687743317044545 A9.5 9.5 0 0 1 4.1845963725262365 -8.528721519458669 L4.184399396399173 -8.373692353723907 L4.181910752666608 -8.292521896337169 L4.1778835775494105 -8.214306624423205 L4.165867678172878 -8.069054476204416 L4.149591313511847 -7.93888298564899 L4.130449002619154 -7.824707530608569 L4.109163514270067 -7.723939983324034 L4.088036380589411 -7.641186714370839 L4.058836330396297 -7.545750743852803 L4.051242572102345 -7.5167179686672805 L4.0465858199742915 -7.490712237383237 L4.044721529185417 -7.467863191016824 L4.045526135671116 -7.448276810330154 L4.048861075366783 -7.432033095323227 L4.054571803445699 -7.4192443665041194 L4.062524755843257 -7.409999284126868 L4.089884197078619 -7.394307226413209 L4.2250000000000005 -7.317914661978506 L4.358715802921384 -7.239097226413208 L4.385985244156745 -7.223249284126868 L4.397968196554304 -7.22098436650412 L4.41189892463322 -7.222433095323227 L4.427633864328886 -7.227666810330153 L4.444998470814585 -7.236763191016824 L4.463854180025709 -7.249802237383237 L4.484047427897656 -7.266837968667281 L4.505393669603705 -7.287930743852803 L4.57344361941059 -7.360936714370839 L4.634546485729935 -7.4206099833240335 L4.711170997380848 -7.489427530608568 L4.800478686488155 -7.56309298564899 L4.905072321827124 -7.642274476204415 L5.024856422450592 -7.7253066244232045 L5.090579247333393 -7.767901896337169 L5.159630603600829 -7.810642353723907 L5.293791311391107 -7.888327522921264 A9.5 9.5 0 0 1 5.602019900573329 -7.672503541284128 L5.5749053848411725 -7.51986382147103 L5.55835944719326 -7.440358674170044 L5.540811514481522 -7.364030979605461 L5.503755392775699 -7.223072076927684 L5.465122260547524 -7.097704544869976 L5.426444404667769 -6.988587698945322 L5.387984189761011 -6.893047223390058 L5.352808070363672 -6.815219850800817 L5.307479352180816 -6.7263043026222284 L5.294959471634852 -6.699031242817454 L5.285857618188918 -6.6742292335470585 L5.28005395490321 -6.652051046234609 L5.277445198295119 -6.632622508230948 L5.277908781253746 -6.616046465553623 L5.281312011087093 -6.60246036873734 L5.287538748560355 -6.5919747242440785 L5.3117576411812 -6.571770147034446 L5.431555301851256 -6.473075544355364 L5.549553157214192 -6.372236017235551 L5.573656348065294 -6.351893552026157 L5.58506395367263 -6.347582225744434 L5.599034611809222 -6.346589899573026 L5.615439327488074 -6.3490117590850526 L5.634119696512802 -6.35495461303749 L5.654953151772504 -6.36452130744789 L5.677797842527991 -6.377791707000509 L5.702482508830685 -6.394857299563462 L5.782175980731859 -6.454937395571513 L5.85271271162357 -6.503093692097622 L5.940123166445631 -6.557560039393916 L6.040865943106885 -6.614598233181767 L6.157620287644334 -6.674414284803641 L6.290002979851883 -6.735384697332027 L6.362123918691417 -6.7659202025825405 L6.437548032237454 -6.796020694203018 L6.583160425481794 -6.8492288887003525 A9.5 9.5 0 0 1 6.849228888700351 -6.583160425481796 L6.796020694203017 -6.437548032237456 L6.765920202582539 -6.3621239186914185 L6.735384697332025 -6.290002979851884 L6.67441428480364 -6.1576202876443356 L6.614598233181766 -6.040865943106887 L6.557560039393915 -5.940123166445633 L6.50309369209762 -5.852712711623572 L6.454937395571512 -5.782175980731861 L6.394857299563461 -5.702482508830687 L6.377791707000508 -5.677797842527993 L6.364521307447889 -5.654953151772506 L6.354954613037489 -5.634119696512804 L6.349011759085052 -5.615439327488076 L6.346589899573025 -5.599034611809223 L6.347582225744433 -5.585063953672631 L6.351893552026156 -5.573656348065295 L6.37223601723555 -5.549553157214194 L6.473075544355363 -5.431555301851258 L6.571770147034445 -5.3117576411812015 L6.591974724244078 -5.287538748560356 L6.602460368737339 -5.281312011087095 L6.616046465553622 -5.277908781253748 L6.632622508230947 -5.277445198295121 L6.652051046234608 -5.280053954903212 L6.674229233547058 -5.28585761818892 L6.699031242817453 -5.294959471634853 L6.726304302622228 -5.307479352180818 L6.815219850800816 -5.352808070363674 L6.893047223390056 -5.387984189761013 L6.988587698945321 -5.4264444046677704 L7.097704544869975 -5.465122260547526 L7.223072076927683 -5.503755392775701 L7.364030979605461 -5.540811514481524 L7.440358674170044 -5.558359447193261 L7.519863821471029 -5.574905384841174 L7.672503541284128 -5.602019900573331 A9.5 9.5 0 0 1 7.888327522921262 -5.293791311391111 L7.810642353723907 -5.159630603600832 L7.767901896337167 -5.090579247333396 L7.725306624423204 -5.024856422450595 L7.642274476204414 -4.905072321827127 L7.563092985648989 -4.800478686488158 L7.489427530608567 -4.711170997380851 L7.420609983324033 -4.634546485729937 L7.360936714370837 -4.573443619410592 L7.287930743852802 -4.505393669603707 L7.2668379686672795 -4.484047427897659 L7.2498022373832365 -4.463854180025712 L7.2367631910168235 -4.444998470814587 L7.2276668103301525 -4.427633864328889 L7.222433095323226 -4.411898924633222 L7.220984366504118 -4.397968196554307 L7.223249284126867 -4.385985244156748 L7.239097226413207 -4.358715802921386 L7.317914661978505 -4.225000000000003 L7.394307226413208 -4.0898841970786215 L7.409999284126867 -4.06252475584326 L7.419244366504118 -4.054571803445701 L7.432033095323226 -4.048861075366785 L7.448276810330153 -4.0455261356711185 L7.467863191016823 -4.04472152918542 L7.490712237383236 -4.046585819974294 L7.5167179686672805 -4.051242572102348 L7.545750743852802 -4.0588363303963 L7.641186714370837 -4.088036380589414 L7.723939983324033 -4.10916351427007 L7.824707530608568 -4.130449002619157 L7.9388829856489895 -4.149591313511849 L8.069054476204414 -4.165867678172882 L8.214306624423203 -4.177883577549414 L8.292521896337167 -4.181910752666612 L8.373692353723907 -4.184399396399177 L8.528721519458667 -4.18459637252624 A9.5 9.5 0 0 1 8.687743317044541 -3.8435730270914643 L8.587941597702631 -3.7249404099728602 L8.533859821719613 -3.664359901502539 L8.480499018925057 -3.60703214535318 L8.377928024823197 -3.5034862155975577 L8.28178698485698 -3.41423131413991 L8.19373255613887 -3.3390722815282046 L8.112654795216978 -3.275561910061078 L8.043277695917707 -3.2257494879876694 L7.959564100361074 -3.17141072356502 L7.935085035853535 -3.1540515012081354 L7.914801594912637 -3.1371232578380424 L7.8986863814159785 -3.1208182158584252 L7.88671286291925 -3.1052969866929083 L7.878826316199521 -3.090709921160817 L7.874980551281975 -3.077242401262968 L7.8751302418698845 -3.0650481980201194 L7.886002129526248 -3.0354410745734315 L7.940402645640924 -2.890070211101906 L7.992172022417402 -2.7437416912290695 L8.002874765402023 -2.7140730041565826 L8.01059837851347 -2.7046354832689397 L8.022201160281641 -2.6967907745273645 L8.037618990557402 -2.6906858085497496 L8.056768091661104 -2.6864922865311787 L8.07959374036981 -2.684360559290976 L8.10601302268197 -2.6844307170441697 L8.135923367065523 -2.6868676205829747 L8.234979986251746 -2.6990517740371676 L8.320144735366929 -2.705487984735099 L8.423077583447332 -2.708951997734006 L8.538842484177687 -2.7079771342096373 L8.669862738360257 -2.7014021821995375 L8.81499471909756 -2.6880127622245618 L8.892721036902639 -2.678396816069133 L8.973090481101668 -2.6667525497058486 L9.125798610005782 -2.6400260012078736 A9.5 9.5 0 0 1 9.223186426689661 -2.2765697213054317 L9.104300581943297 -2.1770697868986506 L9.040520734760543 -2.1268008343200995 L8.978015742076439 -2.079610021765536 L8.859022469843866 -1.995448453556615 L8.748843077316518 -1.9242442509959208 L8.64907516417963 -1.865517544053418 L8.558200696358663 -1.8170510432693086 L8.481227754769021 -1.7800425906802348 L8.389350129413653 -1.7410660675020622 L8.362228559572156 -1.7282213156814643 L8.339313711063475 -1.7150724329219216 L8.320611983043975 -1.7018134786236132 L8.306125136037819 -1.6886072314723508 L8.295825386336581 -1.6756112607086164 L8.289699436941564 -1.663016152769036 L8.28772935222187 -1.6509812133758675 L8.293294848443256 -1.6199360051818523 L8.321625512953156 -1.467327101285561 L8.347198715754626 -1.314231982491803 L8.35258694658047 -1.2831555176258078 L8.358554412350056 -1.272520182544635 L8.368618702414558 -1.2627798506458987 L8.382742184988023 -1.2540903546883042 L8.40087217076163 -1.2466353351813706 L8.422980876026955 -1.2405723613655795 L8.44901097284298 -1.2360537930360833 L8.47889007574583 -1.2332597977388473 L8.578557558351337 -1.2280578451168922 L8.663546099822083 -1.2196075718269224 L8.765516686195967 -1.2051448571935515 L8.879353574687428 -1.1840824399870056 L9.007241608373251 -1.154855947895515 L9.147843659834697 -1.1164680393195967 L9.222719348695792 -1.0935011475495702 L9.299845794814027 -1.0680777762316034 L9.445592927664787 -1.0152397757604141 A9.5 9.5 0 0 1 9.478387683917342 -0.6403939965374059 L9.34403 -0.5630500000000017 L9.27249 -0.5246200000000016 L9.20274 -0.48900000000000166 L9.07094 -0.42678000000000166 L8.95007 -0.3757900000000017 L8.84162 -0.33528000000000163 L8.74371 -0.3033300000000016 L8.66148 -0.2802500000000016 L8.56423 -0.25782000000000155 L8.53529 -0.24988000000000155 L8.51044 -0.24091000000000157 L8.48972 -0.23110000000000155 L8.47316 -0.22061000000000155 L8.46076 -0.20960000000000156 L8.45254 -0.19826000000000155 L8.44851 -0.18675000000000155 L8.4486 -0.15521000000000154 L8.45 -1.5522398179192699e-15 L8.4486 0.15520999999999843 L8.44851 0.18674999999999845 L8.45254 0.19825999999999844 L8.46076 0.20959999999999845 L8.47316 0.22060999999999845 L8.48972 0.23109999999999845 L8.51044 0.24090999999999846 L8.53529 0.24987999999999844 L8.56423 0.25781999999999844 L8.66148 0.2802499999999984 L8.74371 0.3033299999999984 L8.84162 0.3352799999999984 L8.95007 0.37578999999999835 L9.07094 0.4267799999999983 L9.20274 0.4889999999999983 L9.27249 0.5246199999999983 L9.34403 0.5630499999999984 L9.478387683917342 0.6403939965374024 A9.5 9.5 0 0 1 9.445592927664787 1.0152397757604108 L9.299845794814027 1.0680777762315996 L9.222719348695794 1.0935011475495668 L9.147843659834697 1.1164680393195934 L9.007241608373251 1.1548559478955118 L8.879353574687428 1.184082439987002 L8.76551668619597 1.2051448571935484 L8.663546099822085 1.2196075718269193 L8.578557558351337 1.228057845116889 L8.478890075745833 1.2332597977388442 L8.449010972842983 1.2360537930360802 L8.422980876026955 1.2405723613655764 L8.400872170761632 1.2466353351813675 L8.382742184988023 1.254090354688301 L8.368618702414558 1.2627798506458956 L8.358554412350056 1.272520182544632 L8.352586946580471 1.2831555176258047 L8.347198715754628 1.3142319824917998 L8.321625512953158 1.4673271012855582 L8.293294848443258 1.6199360051818497 L8.287729352221872 1.6509812133758643 L8.289699436941564 1.6630161527690328 L8.295825386336581 1.6756112607086133 L8.306125136037819 1.6886072314723477 L8.320611983043976 1.70181347862361 L8.339313711063475 1.7150724329219185 L8.362228559572157 1.7282213156814612 L8.389350129413655 1.741066067502059 L8.481227754769021 1.7800425906802317 L8.558200696358664 1.8170510432693054 L8.649075164179632 1.8655175440534144 L8.748843077316518 1.9242442509959177 L8.859022469843866 1.995448453556612 L8.978015742076439 2.079610021765533 L9.040520734760545 2.126800834320096 L9.104300581943297 2.1770697868986475 L9.223186426689661 2.276569721305428 A9.5 9.5 0 0 1 9.125798610005786 2.6400260012078616 L8.973090481101671 2.666752549705837 L8.892721036902639 2.678396816069121 L8.814994719097564 2.68801276222455 L8.669862738360258 2.7014021821995264 L8.53884248417769 2.7079771342096266 L8.423077583447336 2.708951997733995 L8.320144735366933 2.7054879847350883 L8.234979986251748 2.699051774037157 L8.135923367065526 2.6868676205829645 L8.106013022681974 2.6844307170441595 L8.079593740369813 2.684360559290966 L8.056768091661105 2.6864922865311684 L8.037618990557403 2.690685808549739 L8.022201160281645 2.696790774527354 L8.010598378513471 2.704635483268929 L8.002874765402025 2.7140730041565724 L7.992172022417405 2.7437416912290593 L7.940402645640926 2.8900702111018957 L7.886002129526251 3.0354410745734213 L7.875130241869888 3.065048198020109 L7.874980551281977 3.0772424012629576 L7.8788263161995244 3.090709921160807 L7.886712862919253 3.1052969866928977 L7.898686381415981 3.120818215858415 L7.91480159491264 3.137123257838032 L7.935085035853539 3.154051501208125 L7.959564100361079 3.17141072356501 L8.043277695917713 3.2257494879876587 L8.112654795216981 3.2755619100610676 L8.193732556138874 3.3390722815281935 L8.281786984856984 3.4142313141398994 L8.377928024823202 3.5034862155975466 L8.48049901892506 3.6070321453531684 L8.533859821719616 3.664359901502528 L8.587941597702635 3.7249404099728487 L8.687743317044545 3.8435730270914523 A9.5 9.5 0 0 1 8.528721519458669 4.1845963725262365 L8.373692353723907 4.184399396399173 L8.292521896337169 4.181910752666608 L8.214306624423205 4.1778835775494105 L8.069054476204416 4.165867678172878 L7.93888298564899 4.149591313511847 L7.824707530608569 4.130449002619154 L7.723939983324034 4.109163514270067 L7.641186714370839 4.088036380589411 L7.545750743852803 4.058836330396297 L7.5167179686672805 4.051242572102345 L7.490712237383237 4.0465858199742915 L7.467863191016824 4.044721529185417 L7.448276810330154 4.045526135671116 L7.432033095323227 4.048861075366783 L7.4192443665041194 4.054571803445699 L7.409999284126868 4.062524755843257 L7.394307226413209 4.089884197078619 L7.317914661978506 4.2250000000000005 L7.239097226413208 4.358715802921384 L7.223249284126868 4.385985244156745 L7.22098436650412 4.397968196554304 L7.222433095323227 4.41189892463322 L7.227666810330153 4.427633864328886 L7.236763191016824 4.444998470814585 L7.249802237383237 4.463854180025709 L7.266837968667281 4.484047427897656 L7.287930743852803 4.505393669603705 L7.360936714370839 4.57344361941059 L7.4206099833240335 4.634546485729935 L7.489427530608568 4.711170997380848 L7.56309298564899 4.800478686488155 L7.642274476204415 4.905072321827124 L7.7253066244232045 5.024856422450592 L7.767901896337169 5.090579247333393 L7.810642353723907 5.159630603600829 L7.888327522921264 5.293791311391107 A9.5 9.5 0 0 1 7.6725035412841285 5.602019900573329 L7.519863821471031 5.5749053848411725 L7.440358674170045 5.55835944719326 L7.364030979605462 5.540811514481522 L7.223072076927685 5.503755392775699 L7.097704544869977 5.465122260547524 L6.988587698945323 5.426444404667769 L6.893047223390059 5.387984189761011 L6.815219850800818 5.352808070363672 L6.726304302622229 5.307479352180816 L6.699031242817455 5.294959471634852 L6.674229233547059 5.285857618188918 L6.65205104623461 5.28005395490321 L6.6326225082309485 5.277445198295119 L6.616046465553625 5.277908781253746 L6.602460368737341 5.281312011087093 L6.591974724244079 5.287538748560355 L6.571770147034447 5.3117576411812 L6.473075544355365 5.431555301851256 L6.372236017235552 5.549553157214192 L6.351893552026158 5.573656348065294 L6.347582225744435 5.58506395367263 L6.346589899573027 5.599034611809222 L6.349011759085053 5.615439327488074 L6.354954613037491 5.634119696512802 L6.364521307447891 5.654953151772504 L6.37779170700051 5.677797842527991 L6.394857299563463 5.702482508830685 L6.4549373955715135 5.782175980731859 L6.503093692097623 5.85271271162357 L6.557560039393917 5.940123166445631 L6.614598233181768 6.040865943106885 L6.674414284803642 6.157620287644334 L6.7353846973320275 6.290002979851883 L6.765920202582541 6.362123918691417 L6.796020694203019 6.437548032237454 L6.849228888700353 6.583160425481794 A9.5 9.5 0 0 1 6.583160425481797 6.84922888870035 L6.437548032237458 6.796020694203016 L6.3621239186914185 6.765920202582537 L6.290002979851886 6.735384697332024 L6.157620287644337 6.674414284803639 L6.040865943106888 6.614598233181765 L5.940123166445634 6.557560039393914 L5.852712711623573 6.503093692097619 L5.782175980731862 6.454937395571511 L5.702482508830688 6.39485729956346 L5.677797842527994 6.377791707000507 L5.6549531517725065 6.364521307447888 L5.634119696512805 6.3549546130374885 L5.615439327488077 6.349011759085051 L5.599034611809224 6.346589899573024 L5.585063953672632 6.347582225744432 L5.573656348065296 6.351893552026155 L5.549553157214195 6.372236017235549 L5.431555301851259 6.473075544355361 L5.311757641181202 6.571770147034444 L5.287538748560357 6.591974724244077 L5.2813120110870955 6.602460368737338 L5.277908781253749 6.616046465553621 L5.277445198295122 6.632622508230946 L5.280053954903213 6.652051046234607 L5.2858576181889205 6.674229233547057 L5.294959471634854 6.699031242817452 L5.307479352180819 6.726304302622227 L5.3528080703636745 6.8152198508008155 L5.3879841897610135 6.893047223390055 L5.426444404667771 6.98858769894532 L5.465122260547527 7.097704544869974 L5.503755392775703 7.223072076927682 L5.5408115144815255 7.36403097960546 L5.558359447193263 7.440358674170042 L5.574905384841176 7.519863821471028 L5.602019900573332 7.672503541284127 A9.5 9.5 0 0 1 5.293791311391111 7.88832752292126 L5.159630603600832 7.810642353723905 L5.090579247333396 7.7679018963371655 L5.024856422450595 7.725306624423203 L4.905072321827127 7.642274476204413 L4.800478686488158 7.563092985648988 L4.711170997380851 7.489427530608566 L4.634546485729937 7.420609983324032 L4.573443619410592 7.360936714370836 L4.505393669603707 7.287930743852801 L4.484047427897659 7.266837968667279 L4.463854180025712 7.249802237383236 L4.444998470814587 7.236763191016823 L4.427633864328889 7.227666810330152 L4.411898924633222 7.222433095323225 L4.397968196554307 7.220984366504117 L4.385985244156748 7.223249284126866 L4.358715802921386 7.2390972264132065 L4.225000000000003 7.317914661978504 L4.0898841970786215 7.394307226413207 L4.06252475584326 7.409999284126866 L4.054571803445701 7.419244366504117 L4.048861075366785 7.432033095323225 L4.0455261356711185 7.448276810330152 L4.04472152918542 7.467863191016822 L4.046585819974294 7.490712237383235 L4.051242572102348 7.51671796866728 L4.0588363303963 7.5457507438528015 L4.088036380589414 7.6411867143708365 L4.10916351427007 7.7239399833240325 L4.130449002619157 7.824707530608567 L4.149591313511849 7.938882985648989 L4.165867678172882 8.069054476204414 L4.177883577549414 8.214306624423203 L4.181910752666612 8.292521896337165 L4.184399396399177 8.373692353723905 L4.18459637252624 8.528721519458665 A9.5 9.5 0 0 1 3.8435730270914568 8.687743317044543 L3.724940409972853 8.587941597702633 L3.6643599015025323 8.533859821719615 L3.607032145353173 8.480499018925059 L3.5034862155975506 8.3779280248232 L3.4142313141399034 8.281786984856982 L3.3390722815281975 8.193732556138874 L3.2755619100610716 8.11265479521698 L3.2257494879876627 8.04327769591771 L3.1714107235650135 7.959564100361076 L3.1540515012081287 7.935085035853539 L3.137123257838036 7.914801594912639 L3.1208182158584186 7.89868638141598 L3.1052969866929017 7.886712862919252 L3.0907099211608102 7.878826316199524 L3.0772424012629616 7.874980551281976 L3.065048198020113 7.875130241869887 L3.035441074573425 7.88600212952625 L2.8900702111018997 7.940402645640925 L2.743741691229063 7.992172022417404 L2.7140730041565764 8.002874765402025 L2.704635483268933 8.010598378513471 L2.696790774527358 8.022201160281643 L2.690685808549743 8.037618990557403 L2.686492286531172 8.056768091661104 L2.68436055929097 8.079593740369813 L2.684430717044163 8.106013022681974 L2.686867620582968 8.135923367065525 L2.699051774037161 8.23497998625175 L2.7054879847350923 8.32014473536693 L2.708951997733999 8.423077583447336 L2.7079771342096306 8.538842484177689 L2.7014021821995304 8.669862738360257 L2.6880127622245547 8.814994719097562 L2.6783968160691254 8.89272103690264 L2.6667525497058415 8.97309048110167 L2.640026001207866 9.125798610005784 A9.5 9.5 0 0 1 2.276569721305432 9.223186426689661 L2.1770697868986515 9.104300581943297 L2.1268008343201 9.040520734760543 L2.0796100217655367 8.978015742076439 L1.9954484535566157 8.859022469843866 L1.9242442509959212 8.748843077316518 L1.8655175440534184 8.64907516417963 L1.817051043269309 8.558200696358663 L1.7800425906802353 8.481227754769021 L1.7410660675020626 8.389350129413653 L1.7282213156814648 8.362228559572156 L1.715072432921922 8.339313711063475 L1.7018134786236137 8.320611983043975 L1.6886072314723513 8.306125136037819 L1.6756112607086169 8.295825386336581 L1.6630161527690364 8.289699436941564 L1.650981213375868 8.28772935222187 L1.6199360051818532 8.293294848443256 L1.4673271012855615 8.321625512953156 L1.3142319824918034 8.347198715754626 L1.2831555176258083 8.35258694658047 L1.2725201825446355 8.358554412350056 L1.2627798506458991 8.368618702414558 L1.2540903546883047 8.382742184988023 L1.246635335181371 8.40087217076163 L1.24057236136558 8.422980876026955 L1.2360537930360838 8.44901097284298 L1.2332597977388478 8.47889007574583 L1.2280578451168926 8.578557558351337 L1.2196075718269228 8.663546099822083 L1.205144857193552 8.765516686195967 L1.184082439987006 8.879353574687428 L1.1548559478955156 9.007241608373251 L1.1164680393195971 9.147843659834697 L1.0935011475495706 9.222719348695792 L1.0680777762316038 9.299845794814027 L1.0152397757604148 9.445592927664787 A9.5 9.5 0 0 1 0.6403939965374065 9.478387683917342 L0.5630500000000024 9.34403 L0.5246200000000022 9.27249 L0.48900000000000227 9.20274 L0.4267800000000022 9.07094 L0.3757900000000022 8.95007 L0.3352800000000022 8.84162 L0.30333000000000215 8.74371 L0.2802500000000021 8.66148 L0.2578200000000021 8.56423 L0.24988000000000207 8.53529 L0.2409100000000021 8.51044 L0.23110000000000208 8.48972 L0.22061000000000208 8.47316 L0.2096000000000021 8.46076 L0.19826000000000207 8.45254 L0.18675000000000208 8.44851 L0.15521000000000207 8.4486 L2.069653090559027e-15 8.45 L-0.1552099999999979 8.4486 L-0.18674999999999792 8.44851 L-0.1982599999999979 8.45254 L-0.20959999999999793 8.46076 L-0.22060999999999792 8.47316 L-0.23109999999999792 8.48972 L-0.24090999999999793 8.51044 L-0.2498799999999979 8.53529 L-0.2578199999999979 8.56423 L-0.2802499999999979 8.66148 L-0.3033299999999978 8.74371 L-0.33527999999999786 8.84162 L-0.37578999999999785 8.95007 L-0.4267799999999978 9.07094 L-0.4889999999999977 9.20274 L-0.5246199999999978 9.27249 L-0.5630499999999977 9.34403 L-0.6403939965374018 9.478387683917342 A9.5 9.5 0 0 1 -1.0152397757604104 9.445592927664787 L-1.0680777762315992 9.299845794814027 L-1.0935011475495662 9.222719348695794 L-1.116468039319593 9.147843659834697 L-1.154855947895511 9.007241608373251 L-1.1840824399870016 8.879353574687428 L-1.205144857193548 8.76551668619597 L-1.2196075718269186 8.663546099822085 L-1.2280578451168886 8.578557558351337 L-1.2332597977388438 8.478890075745833 L-1.2360537930360798 8.449010972842983 L-1.240572361365576 8.422980876026955 L-1.246635335181367 8.400872170761632 L-1.2540903546883007 8.382742184988023 L-1.2627798506458952 8.368618702414558 L-1.2725201825446315 8.358554412350056 L-1.2831555176258043 8.352586946580471 L-1.3142319824917994 8.347198715754628 L-1.4673271012855578 8.321625512953158 L-1.6199360051818492 8.293294848443258 L-1.650981213375864 8.287729352221872 L-1.6630161527690324 8.289699436941564 L-1.6756112607086129 8.295825386336581 L-1.6886072314723473 8.306125136037819 L-1.7018134786236097 8.320611983043976 L-1.715072432921918 8.339313711063475 L-1.7282213156814608 8.362228559572157 L-1.7410660675020586 8.389350129413655 L-1.7800425906802313 8.481227754769021 L-1.8170510432693048 8.558200696358664 L-1.865517544053414 8.649075164179632 L-1.9242442509959172 8.748843077316518 L-1.9954484535566115 8.859022469843866 L-2.0796100217655322 8.978015742076439 L-2.1268008343200955 9.040520734760545 L-2.177069786898647 9.104300581943297 L-2.2765697213054277 9.223186426689661 A9.5 9.5 0 0 1 -2.640026001207869 9.125798610005784 L-2.6667525497058446 8.97309048110167 L-2.678396816069129 8.892721036902639 L-2.6880127622245578 8.814994719097562 L-2.7014021821995335 8.669862738360255 L-2.7079771342096333 8.538842484177689 L-2.708951997734002 8.423077583447334 L-2.705487984735095 8.32014473536693 L-2.6990517740371636 8.234979986251748 L-2.686867620582971 8.135923367065525 L-2.6844307170441657 8.106013022681973 L-2.6843605592909725 8.079593740369813 L-2.6864922865311747 8.056768091661104 L-2.6906858085497456 8.037618990557403 L-2.6967907745273605 8.022201160281643 L-2.7046354832689357 8.01059837851347 L-2.714073004156579 8.002874765402023 L-2.743741691229066 7.992172022417403 L-2.8900702111019023 7.9404026456409245 L-3.035441074573428 7.886002129526249 L-3.065048198020116 7.875130241869886 L-3.077242401262964 7.8749805512819755 L-3.090709921160813 7.878826316199522 L-3.1052969866929043 7.886712862919251 L-3.1208182158584212 7.898686381415979 L-3.137123257838039 7.914801594912638 L-3.1540515012081314 7.935085035853537 L-3.1714107235650166 7.959564100361076 L-3.2257494879876654 8.043277695917709 L-3.2755619100610742 8.11265479521698 L-3.3390722815282006 8.193732556138873 L-3.414231314139906 8.281786984856982 L-3.5034862155975537 8.377928024823198 L-3.607032145353176 8.480499018925059 L-3.664359901502535 8.533859821719613 L-3.7249404099728562 8.587941597702633 L-3.84357302709146 8.687743317044543 A9.5 9.5 0 0 1 -4.184596372526235 8.528721519458669 L-4.184399396399172 8.373692353723907 L-4.1819107526666075 8.292521896337169 L-4.17788357754941 8.214306624423205 L-4.165867678172877 8.069054476204416 L-4.149591313511846 7.93888298564899 L-4.130449002619153 7.824707530608569 L-4.109163514270066 7.723939983324034 L-4.08803638058941 7.641186714370839 L-4.058836330396296 7.545750743852803 L-4.051242572102344 7.5167179686672805 L-4.046585819974291 7.490712237383237 L-4.044721529185416 7.467863191016824 L-4.045526135671115 7.448276810330154 L-4.048861075366782 7.432033095323227 L-4.054571803445698 7.4192443665041194 L-4.062524755843256 7.409999284126868 L-4.089884197078618 7.394307226413209 L-4.225 7.317914661978506 L-4.358715802921383 7.239097226413208 L-4.385985244156744 7.223249284126868 L-4.397968196554303 7.22098436650412 L-4.411898924633219 7.222433095323227 L-4.427633864328885 7.227666810330153 L-4.444998470814584 7.236763191016824 L-4.4638541800257086 7.249802237383237 L-4.484047427897655 7.266837968667281 L-4.505393669603704 7.287930743852803 L-4.573443619410589 7.360936714370839 L-4.634546485729934 7.4206099833240335 L-4.711170997380847 7.489427530608568 L-4.800478686488154 7.56309298564899 L-4.905072321827123 7.642274476204415 L-5.024856422450591 7.7253066244232045 L-5.090579247333392 7.767901896337169 L-5.159630603600828 7.810642353723907 L-5.293791311391107 7.888327522921264 A9.5 9.5 0 0 1 -5.602019900573329 7.6725035412841285 L-5.5749053848411725 7.519863821471031 L-5.55835944719326 7.440358674170045 L-5.540811514481522 7.364030979605462 L-5.503755392775699 7.223072076927685 L-5.465122260547524 7.097704544869977 L-5.426444404667769 6.988587698945323 L-5.387984189761011 6.893047223390059 L-5.352808070363672 6.815219850800818 L-5.307479352180816 6.726304302622229 L-5.294959471634852 6.699031242817455 L-5.285857618188918 6.674229233547059 L-5.28005395490321 6.65205104623461 L-5.277445198295119 6.6326225082309485 L-5.277908781253746 6.616046465553625 L-5.281312011087093 6.602460368737341 L-5.287538748560355 6.591974724244079 L-5.3117576411812 6.571770147034447 L-5.431555301851256 6.473075544355365 L-5.549553157214192 6.372236017235552 L-5.573656348065294 6.351893552026158 L-5.58506395367263 6.347582225744435 L-5.599034611809222 6.346589899573027 L-5.615439327488074 6.349011759085053 L-5.634119696512802 6.354954613037491 L-5.654953151772504 6.364521307447891 L-5.677797842527991 6.37779170700051 L-5.702482508830685 6.394857299563463 L-5.782175980731859 6.4549373955715135 L-5.85271271162357 6.503093692097623 L-5.940123166445631 6.557560039393917 L-6.040865943106885 6.614598233181768 L-6.157620287644334 6.674414284803642 L-6.290002979851883 6.7353846973320275 L-6.362123918691417 6.765920202582541 L-6.437548032237454 6.796020694203019 L-6.583160425481794 6.849228888700353 A9.5 9.5 0 0 1 -6.84922888870035 6.583160425481797 L-6.796020694203016 6.437548032237458 L-6.765920202582537 6.3621239186914185 L-6.735384697332024 6.290002979851886 L-6.674414284803639 6.157620287644337 L-6.614598233181765 6.040865943106888 L-6.557560039393914 5.940123166445634 L-6.503093692097619 5.852712711623573 L-6.454937395571511 5.782175980731862 L-6.39485729956346 5.702482508830688 L-6.377791707000507 5.677797842527994 L-6.364521307447888 5.6549531517725065 L-6.3549546130374885 5.634119696512805 L-6.349011759085051 5.615439327488077 L-6.346589899573024 5.599034611809224 L-6.347582225744432 5.585063953672632 L-6.351893552026155 5.573656348065296 L-6.372236017235549 5.549553157214195 L-6.473075544355361 5.431555301851259 L-6.571770147034444 5.311757641181202 L-6.591974724244077 5.287538748560357 L-6.602460368737338 5.2813120110870955 L-6.616046465553621 5.277908781253749 L-6.632622508230946 5.277445198295122 L-6.652051046234607 5.280053954903213 L-6.674229233547057 5.2858576181889205 L-6.699031242817452 5.294959471634854 L-6.726304302622227 5.307479352180819 L-6.8152198508008155 5.3528080703636745 L-6.893047223390055 5.3879841897610135 L-6.98858769894532 5.426444404667771 L-7.097704544869974 5.465122260547527 L-7.223072076927682 5.503755392775703 L-7.36403097960546 5.5408115144815255 L-7.440358674170042 5.558359447193263 L-7.519863821471028 5.574905384841176 L-7.672503541284127 5.602019900573332 A9.5 9.5 0 0 1 -7.88832752292126 5.293791311391111 L-7.810642353723905 5.159630603600832 L-7.7679018963371655 5.090579247333396 L-7.725306624423203 5.024856422450595 L-7.642274476204413 4.905072321827127 L-7.563092985648988 4.800478686488158 L-7.489427530608566 4.711170997380851 L-7.420609983324032 4.634546485729937 L-7.360936714370836 4.573443619410592 L-7.287930743852801 4.505393669603707 L-7.266837968667279 4.484047427897659 L-7.249802237383236 4.463854180025712 L-7.236763191016823 4.444998470814587 L-7.227666810330152 4.427633864328889 L-7.222433095323225 4.411898924633222 L-7.220984366504117 4.397968196554307 L-7.223249284126866 4.385985244156748 L-7.2390972264132065 4.358715802921386 L-7.317914661978504 4.225000000000003 L-7.394307226413207 4.0898841970786215 L-7.409999284126866 4.06252475584326 L-7.419244366504117 4.054571803445701 L-7.432033095323225 4.048861075366785 L-7.448276810330152 4.0455261356711185 L-7.467863191016822 4.04472152918542 L-7.490712237383235 4.046585819974294 L-7.51671796866728 4.051242572102348 L-7.5457507438528015 4.0588363303963 L-7.6411867143708365 4.088036380589414 L-7.7239399833240325 4.10916351427007 L-7.824707530608567 4.130449002619157 L-7.938882985648989 4.149591313511849 L-8.069054476204414 4.165867678172882 L-8.214306624423203 4.177883577549414 L-8.292521896337165 4.181910752666612 L-8.373692353723905 4.184399396399177 L-8.528721519458665 4.18459637252624 A9.5 9.5 0 0 1 -8.687743317044543 3.843573027091457 L-8.587941597702633 3.7249404099728536 L-8.533859821719615 3.6643599015025323 L-8.480499018925059 3.6070321453531733 L-8.3779280248232 3.503486215597551 L-8.281786984856982 3.414231314139904 L-8.193732556138874 3.339072281528198 L-8.11265479521698 3.275561910061072 L-8.04327769591771 3.225749487987663 L-7.959564100361076 3.171410723565014 L-7.935085035853539 3.154051501208129 L-7.914801594912639 3.1371232578380366 L-7.89868638141598 3.120818215858419 L-7.886712862919252 3.105296986692902 L-7.878826316199524 3.090709921160811 L-7.874980551281976 3.077242401262962 L-7.875130241869887 3.0650481980201136 L-7.88600212952625 3.0354410745734253 L-7.940402645640925 2.8900702111019 L-7.992172022417404 2.7437416912290633 L-8.002874765402025 2.714073004156577 L-8.010598378513471 2.7046354832689334 L-8.022201160281643 2.696790774527358 L-8.037618990557403 2.6906858085497434 L-8.056768091661104 2.6864922865311724 L-8.079593740369813 2.6843605592909703 L-8.106013022681974 2.6844307170441635 L-8.135923367065525 2.6868676205829685 L-8.23497998625175 2.6990517740371613 L-8.32014473536693 2.7054879847350928 L-8.423077583447336 2.7089519977339993 L-8.538842484177689 2.707977134209631 L-8.669862738360257 2.701402182199531 L-8.814994719097562 2.688012762224555 L-8.89272103690264 2.6783968160691263 L-8.97309048110167 2.666752549705842 L-9.125798610005784 2.6400260012078665 A9.5 9.5 0 0 1 -9.223186426689661 2.2765697213054326 Z" id="SvgjsPath1191">
        </path>
      </g>
    </g>
    <g transform="matrix(1,0,0,1,0,0)" id="SvgjsG1192">
      <g fill="none" stroke-width="0.04" stroke="blue" id="SvgjsG1193">
      </g>
      <g fill="none" stroke-width="0.1" stroke="black" id="SvgjsG1194">
        <circle cy="0" cx="0" r="3.45" id="SvgjsCircle1195">
        </circle>
        <path d="M5.209895148714567 -1.4578456597323384  L5.132018091241064 -1.3822118259060099 L5.056999323175122 -1.3152519174691824 L4.986729838484949 -1.2576198012371926 L4.9200584884001115 -1.2074423363962397 L4.857655520443844 -1.1644510676286286 L4.802376642570696 -1.129665275110912 L4.750049912707859 -1.0997006569444525 L4.705253451148409 -1.0765276482543258 L4.667708618672019 -1.0590289038902332 L4.611917316594145 -1.036939261239087 L4.566624195423143 -1.0239337364673273 L4.508784577255425 -1.005124048266489 L4.460545747172719 -0.9836129959386335 L4.440063478264136 -0.972107207814541 L4.4220227314940335 -0.9602085206610347 L4.406426052838067 -0.9480287088848807 L4.393269240077791 -0.9356582287813835 L4.382564716072267 -0.9232104191019594 L4.3743098429476985 -0.9107658592585066 L4.368488977257582 -0.8984233180850847 L4.365096352438818 -0.886283128760403 L4.3641277662729605 -0.8744357475797662 L4.3690556983676165 -0.8449840466905059 L4.395213115648363 -0.6961333694290271 L4.416333322392075 -0.5464848763958432 L4.420747656549621 -0.5169518295847619 L4.425329878857908 -0.5059836100976512 L4.432307981615394 -0.4954859826558922 L4.441658008836819 -0.48554627486548796 L4.453354440192271 -0.4762616912158477 L4.46738163223525 -0.46773100054103106 L4.483717193325144 -0.460031653563635 L4.5023142850205815 -0.4532676029671741 L4.523148951336303 -0.4475261763576513 L4.546184230714343 -0.4429128907632312 L4.598709365139151 -0.43736128255878 L4.659530624210535 -0.4373456309878751 L4.706625870418801 -0.4389729860759787 L4.766512626791429 -0.43520494797034415 L4.807627293760038 -0.4301646444020557 L4.857392113929165 -0.42196867139488076 L4.916417367585025 -0.4096404748170567 L4.97974010565054 -0.3936393328613712 L5.05237388762044 -0.37203578415406036 L5.131287798939326 -0.34491675946003764 L5.215927353588095 -0.31181982472495784 L5.307966191450412 -0.2713192417050345 L5.405403814432546 -0.22345252542334715 L5.497251099118716 -0.17362506079734075 A5.5 5.5 0 0 1 5.497251099118716 0.1736250607973413 L5.405403814432547 0.2234525254233477 L5.307966191450413 0.2713192417050351 L5.215927353588095 0.3118198247249584 L5.131287798939326 0.3449167594600382 L5.05237388762044 0.3720357841540609 L4.97974010565054 0.39363933286137176 L4.916417367585025 0.40964047481705723 L4.857392113929165 0.4219686713948813 L4.807627293760038 0.43016464440205626 L4.766512626791429 0.4352049479703447 L4.706625870418801 0.4389729860759791 L4.659530624210535 0.43734563098787566 L4.598709365139151 0.43736128255878054 L4.546184230714343 0.44291289076323176 L4.523148951336303 0.44752617635765174 L4.5023142850205815 0.45326760296717455 L4.483717193325144 0.46003165356363557 L4.46738163223525 0.4677310005410316 L4.453354440192272 0.47626169121584816 L4.441658008836819 0.4855462748654885 L4.432307981615394 0.49548598265589266 L4.425329878857908 0.5059836100976517 L4.420747656549621 0.5169518295847625 L4.416333322392075 0.5464848763958436 L4.395213115648363 0.6961333694290276 L4.3690556983676165 0.8449840466905063 L4.3641277662729605 0.8744357475797667 L4.365096352438818 0.8862831287604035 L4.368488977257582 0.8984233180850851 L4.3743098429476985 0.9107658592585072 L4.382564716072266 0.9232104191019599 L4.393269240077791 0.9356582287813842 L4.406426052838067 0.9480287088848813 L4.4220227314940335 0.9602085206610351 L4.440063478264136 0.9721072078145414 L4.460545747172719 0.9836129959386339 L4.508784577255425 1.0051240482664896 L4.566624195423143 1.023933736467328 L4.611917316594145 1.0369392612390875 L4.667708618672019 1.0590289038902339 L4.705253451148409 1.0765276482543262 L4.750049912707859 1.099700656944453 L4.802376642570696 1.1296652751109126 L4.857655520443844 1.164451067628629 L4.9200584884001115 1.2074423363962403 L4.986729838484949 1.257619801237193 L5.056999323175122 1.3152519174691828 L5.132018091241063 1.3822118259060105 L5.209895148714566 1.4578456597323388 L5.281849573963313 1.5336167665105889 A5.5 5.5 0 0 1 5.174543385091789 1.8638712574374956 L5.071793893130938 1.882877620505305 L4.964333578065504 1.8982916915456765 L4.864284073129063 1.9083684698985508 L4.773559557849173 1.9136904645649468 L4.690127728761682 1.9150964500256333 L4.6143730334266815 1.9131975728043975 L4.549204905966109 1.908847760936918 L4.489258931598187 1.9023327661494727 L4.439397080149425 1.894749424531052 L4.3987371687542165 1.8868379072724124 L4.3406170910561555 1.8719154990092903 L4.296329730641365 1.855814560915797 L4.238480439270852 1.8370346437719571 L4.186810526625572 1.8260833777616234 L4.1634770904198275 1.8233525802897383 L4.141887946861126 1.8223747355158662 L4.122110855034923 1.8230609125323411 L4.104195584151437 1.8253354606569834 L4.0882188033613645 1.8291139888871248 L4.074225741969927 1.8343297566058274 L4.062261799027098 1.840893663160673 L4.052381283648095 1.848721147804239 L4.044633965043133 1.8577365598543465 L4.0313094704172 1.8844600521965431 L3.964979032638237 2.0202577238409836 L3.8941044615859135 2.1537400439367516 L3.8803166435674012 2.180227461219084 L3.8775767816283793 2.1917942998777282 L3.877051834753353 2.2043886847685594 L3.8787737520220573 2.2179258853994037 L3.8827790224192245 2.232312261212845 L3.8891130449948292 2.2474587115564644 L3.8978032289236078 2.26328941600333 L3.908872782964806 2.279692744120788 L3.922353656198159 2.2965839654166644 L3.9382779674481543 2.3138559893633035 L3.977508540400571 2.3492208341363985 L4.026704772846048 2.3849833356312686 L4.065762162703838 2.411348668883412 L4.1119967691187185 2.4495976279497853 L4.142296617309872 2.477841914090404 L4.177739730486904 2.513723622917047 L4.218245831655979 2.558391517070238 L4.260069767619945 2.6085568844114833 L4.306133484271979 2.668727588314639 L4.354036016849853 2.7370517734369337 L4.4030569648236675 2.813577638082481 L4.453712303388445 2.9004423695613015 L4.504405646366447 2.996439754305443 L4.549423811698461 3.0907374993761376 A5.5 5.5 0 0 1 4.345315311368339 3.3716687490450026 L4.241721448303743 3.3579935353124197 L4.134757405513653 3.339446124441896 L4.03649077613216 3.3181127128534986 L3.948562047891612 3.295138813532747 L3.8687791897703345 3.2706941321071286 L3.797318978463622 3.245478704290016 L3.736684571976875 3.221203728491882 L3.6816858065361853 3.1964832754216 L3.6366077492355435 3.1738629294914427 L3.600382668835356 3.1537740258379325 L3.5497184679633396 3.12162188049738 L3.5125741487476105 3.09262343140092 L3.4633595167770266 3.056886254679752 L3.4176026369664454 3.0305041006736815 L3.3962550832424236 3.0206965296186246 L3.3760247582326763 3.013095131720869 L3.357003585818758 3.0076362673701085 L3.3392622766787876 3.004263368023849 L3.3228998257621307 3.0029198651395945 L3.3079798726790948 3.0035562612426627 L3.2945731281077983 3.006101845654934 L3.282757373794171 3.010492978766103 L3.272603320416332 3.016673092033673 L3.25167295969321 3.037971148283012 L3.146625176280137 3.146625176280137 L3.037971148283012 3.25167295969321 L3.016673092033673 3.272603320416332 L3.010492978766103 3.282757373794171 L3.006101845654934 3.2945731281077983 L3.0035562612426627 3.3079798726790948 L3.0029198651395945 3.3228998257621307 L3.004263368023849 3.3392622766787876 L3.0076362673701085 3.357003585818758 L3.013095131720869 3.3760247582326763 L3.0206965296186246 3.3962550832424236 L3.0305041006736815 3.4176026369664454 L3.056886254679752 3.4633595167770266 L3.09262343140092 3.5125741487476105 L3.12162188049738 3.5497184679633396 L3.1537740258379325 3.600382668835356 L3.1738629294914427 3.6366077492355435 L3.1964832754216 3.6816858065361853 L3.221203728491882 3.736684571976875 L3.245478704290016 3.797318978463622 L3.2706941321071286 3.8687791897703345 L3.295138813532747 3.948562047891612 L3.3181127128534986 4.03649077613216 L3.339446124441896 4.134757405513653 L3.3579935353124197 4.241721448303743 L3.3716687490450026 4.345315311368339 A5.5 5.5 0 0 1 3.0907374993761376 4.549423811698461 L2.9964397543054426 4.504405646366448 L2.9004423695613015 4.453712303388446 L2.8135776380824806 4.4030569648236675 L2.7370517734369337 4.354036016849854 L2.6687275883146384 4.30613348427198 L2.6085568844114833 4.260069767619946 L2.558391517070238 4.21824583165598 L2.5137236229170465 4.177739730486905 L2.4778419140904036 4.1422966173098725 L2.4495976279497853 4.1119967691187185 L2.4113486688834116 4.065762162703838 L2.384983335631268 4.026704772846049 L2.349220834136398 3.9775085404005717 L2.3138559893633035 3.9382779674481543 L2.296583965416664 3.922353656198159 L2.279692744120788 3.908872782964807 L2.2632894160033294 3.8978032289236078 L2.2474587115564644 3.8891130449948297 L2.2323122612128445 3.8827790224192253 L2.2179258853994037 3.8787737520220578 L2.204388684768559 3.8770518347533534 L2.191794299877728 3.87757678162838 L2.1802274612190837 3.8803166435674017 L2.153740043936751 3.894104461585914 L2.020257723840983 3.9649790326382375 L1.8844600521965427 4.0313094704172 L1.857736559854346 4.0446339650431335 L1.8487211478042385 4.052381283648095 L1.8408936631606725 4.062261799027099 L1.8343297566058274 4.0742257419699275 L1.8291139888871244 4.088218803361365 L1.8253354606569834 4.104195584151437 L1.8230609125323407 4.122110855034923 L1.822374735515866 4.141887946861127 L1.823352580289738 4.1634770904198275 L1.8260833777616234 4.186810526625572 L1.8370346437719567 4.238480439270853 L1.8558145609157966 4.296329730641366 L1.8719154990092899 4.3406170910561555 L1.886837907272412 4.3987371687542165 L1.8947494245310517 4.439397080149426 L1.9023327661494722 4.4892589315981875 L1.908847760936918 4.54920490596611 L1.9131975728043973 4.614373033426682 L1.915096450025633 4.6901277287616825 L1.9136904645649468 4.773559557849174 L1.9083684698985504 4.864284073129063 L1.8982916915456762 4.964333578065505 L1.8828776205053046 5.0717938931309385 L1.8638712574374952 5.174543385091789 A5.5 5.5 0 0 1 1.5336167665105886 5.281849573963313 L1.4578456597323386 5.209895148714566 L1.38221182590601 5.132018091241063 L1.3152519174691824 5.056999323175122 L1.2576198012371926 4.986729838484949 L1.20744233639624 4.9200584884001115 L1.1644510676286288 4.857655520443844 L1.1296652751109124 4.802376642570696 L1.0997006569444527 4.750049912707859 L1.0765276482543262 4.705253451148409 L1.0590289038902334 4.667708618672019 L1.036939261239087 4.611917316594145 L1.0239337364673278 4.566624195423143 L1.0051240482664894 4.508784577255425 L0.9836129959386337 4.460545747172719 L0.9721072078145412 4.440063478264136 L0.9602085206610349 4.4220227314940335 L0.9480287088848811 4.406426052838067 L0.9356582287813837 4.393269240077791 L0.9232104191019597 4.382564716072267 L0.9107658592585068 4.3743098429476985 L0.8984233180850849 4.368488977257582 L0.8862831287604033 4.365096352438818 L0.8744357475797664 4.3641277662729605 L0.8449840466905061 4.3690556983676165 L0.6961333694290274 4.395213115648363 L0.5464848763958434 4.416333322392075 L0.5169518295847622 4.420747656549621 L0.5059836100976515 4.425329878857908 L0.49548598265589244 4.432307981615394 L0.4855462748654882 4.441658008836819 L0.47626169121584794 4.453354440192271 L0.4677310005410313 4.46738163223525 L0.46003165356363535 4.483717193325144 L0.45326760296717433 4.5023142850205815 L0.4475261763576515 4.523148951336303 L0.44291289076323154 4.546184230714343 L0.4373612825587803 4.598709365139151 L0.43734563098787543 4.659530624210535 L0.4389729860759789 4.706625870418801 L0.4352049479703445 4.766512626791429 L0.43016464440205604 4.807627293760038 L0.421968671394881 4.857392113929165 L0.409640474817057 4.916417367585025 L0.3936393328613714 4.97974010565054 L0.3720357841540607 5.05237388762044 L0.34491675946003786 5.131287798939326 L0.31181982472495806 5.215927353588095 L0.27131924170503485 5.307966191450413 L0.22345252542334748 5.405403814432547 L0.17362506079734097 5.497251099118716 A5.5 5.5 0 0 1 -0.17362506079734097 5.497251099118716 L-0.22345252542334748 5.405403814432547 L-0.27131924170503485 5.307966191450413 L-0.31181982472495806 5.215927353588095 L-0.34491675946003786 5.131287798939326 L-0.3720357841540607 5.05237388762044 L-0.3936393328613714 4.97974010565054 L-0.409640474817057 4.916417367585025 L-0.421968671394881 4.857392113929165 L-0.43016464440205604 4.807627293760038 L-0.4352049479703445 4.766512626791429 L-0.4389729860759789 4.706625870418801 L-0.43734563098787543 4.659530624210535 L-0.4373612825587803 4.598709365139151 L-0.44291289076323154 4.546184230714343 L-0.4475261763576515 4.523148951336303 L-0.45326760296717433 4.5023142850205815 L-0.46003165356363535 4.483717193325144 L-0.4677310005410313 4.46738163223525 L-0.47626169121584794 4.453354440192271 L-0.4855462748654882 4.441658008836819 L-0.49548598265589244 4.432307981615394 L-0.5059836100976515 4.425329878857908 L-0.5169518295847622 4.420747656549621 L-0.5464848763958434 4.416333322392075 L-0.6961333694290274 4.395213115648363 L-0.8449840466905061 4.3690556983676165 L-0.8744357475797664 4.3641277662729605 L-0.8862831287604033 4.365096352438818 L-0.8984233180850849 4.368488977257582 L-0.9107658592585068 4.3743098429476985 L-0.9232104191019597 4.382564716072267 L-0.9356582287813837 4.393269240077791 L-0.9480287088848811 4.406426052838067 L-0.9602085206610349 4.4220227314940335 L-0.9721072078145412 4.440063478264136 L-0.9836129959386337 4.460545747172719 L-1.0051240482664894 4.508784577255425 L-1.0239337364673278 4.566624195423143 L-1.036939261239087 4.611917316594145 L-1.0590289038902334 4.667708618672019 L-1.0765276482543262 4.705253451148409 L-1.0997006569444527 4.750049912707859 L-1.1296652751109124 4.802376642570696 L-1.1644510676286288 4.857655520443844 L-1.20744233639624 4.9200584884001115 L-1.2576198012371926 4.986729838484949 L-1.3152519174691824 5.056999323175122 L-1.38221182590601 5.132018091241063 L-1.4578456597323386 5.209895148714566 L-1.5336167665105886 5.281849573963313 A5.5 5.5 0 0 1 -1.8638712574374952 5.174543385091789 L-1.8828776205053046 5.0717938931309385 L-1.8982916915456762 4.964333578065505 L-1.9083684698985504 4.864284073129063 L-1.9136904645649468 4.773559557849174 L-1.915096450025633 4.6901277287616825 L-1.9131975728043973 4.614373033426682 L-1.908847760936918 4.54920490596611 L-1.9023327661494722 4.4892589315981875 L-1.8947494245310517 4.439397080149426 L-1.886837907272412 4.3987371687542165 L-1.8719154990092899 4.3406170910561555 L-1.8558145609157966 4.296329730641366 L-1.8370346437719567 4.238480439270853 L-1.8260833777616234 4.186810526625572 L-1.823352580289738 4.1634770904198275 L-1.822374735515866 4.141887946861127 L-1.8230609125323407 4.122110855034923 L-1.8253354606569834 4.104195584151437 L-1.8291139888871244 4.088218803361365 L-1.8343297566058274 4.0742257419699275 L-1.8408936631606725 4.062261799027099 L-1.8487211478042385 4.052381283648095 L-1.857736559854346 4.0446339650431335 L-1.8844600521965427 4.0313094704172 L-2.020257723840983 3.9649790326382375 L-2.153740043936751 3.894104461585914 L-2.1802274612190837 3.8803166435674017 L-2.191794299877728 3.87757678162838 L-2.204388684768559 3.8770518347533534 L-2.2179258853994037 3.8787737520220578 L-2.2323122612128445 3.8827790224192253 L-2.2474587115564644 3.8891130449948297 L-2.2632894160033294 3.8978032289236078 L-2.279692744120788 3.908872782964807 L-2.296583965416664 3.922353656198159 L-2.3138559893633035 3.9382779674481543 L-2.349220834136398 3.9775085404005717 L-2.384983335631268 4.026704772846049 L-2.4113486688834116 4.065762162703838 L-2.4495976279497853 4.1119967691187185 L-2.4778419140904036 4.1422966173098725 L-2.5137236229170465 4.177739730486905 L-2.558391517070238 4.21824583165598 L-2.6085568844114833 4.260069767619946 L-2.6687275883146384 4.30613348427198 L-2.7370517734369337 4.354036016849854 L-2.8135776380824806 4.4030569648236675 L-2.9004423695613015 4.453712303388446 L-2.9964397543054426 4.504405646366448 L-3.0907374993761376 4.549423811698461 A5.5 5.5 0 0 1 -3.3716687490450026 4.345315311368339 L-3.3579935353124197 4.241721448303743 L-3.339446124441896 4.134757405513653 L-3.3181127128534986 4.03649077613216 L-3.295138813532747 3.948562047891612 L-3.2706941321071286 3.8687791897703345 L-3.245478704290016 3.797318978463622 L-3.221203728491882 3.736684571976875 L-3.1964832754216 3.6816858065361853 L-3.1738629294914427 3.6366077492355435 L-3.1537740258379325 3.600382668835356 L-3.12162188049738 3.5497184679633396 L-3.09262343140092 3.5125741487476105 L-3.056886254679752 3.4633595167770266 L-3.0305041006736815 3.4176026369664454 L-3.0206965296186246 3.3962550832424236 L-3.013095131720869 3.3760247582326763 L-3.0076362673701085 3.357003585818758 L-3.004263368023849 3.3392622766787876 L-3.0029198651395945 3.3228998257621307 L-3.0035562612426627 3.3079798726790948 L-3.006101845654934 3.2945731281077983 L-3.010492978766103 3.282757373794171 L-3.016673092033673 3.272603320416332 L-3.037971148283012 3.25167295969321 L-3.146625176280137 3.146625176280137 L-3.25167295969321 3.037971148283012 L-3.272603320416332 3.016673092033673 L-3.282757373794171 3.010492978766103 L-3.2945731281077983 3.006101845654934 L-3.3079798726790948 3.0035562612426627 L-3.3228998257621307 3.0029198651395945 L-3.3392622766787876 3.004263368023849 L-3.357003585818758 3.0076362673701085 L-3.3760247582326763 3.013095131720869 L-3.3962550832424236 3.0206965296186246 L-3.4176026369664454 3.0305041006736815 L-3.4633595167770266 3.056886254679752 L-3.5125741487476105 3.09262343140092 L-3.5497184679633396 3.12162188049738 L-3.600382668835356 3.1537740258379325 L-3.6366077492355435 3.1738629294914427 L-3.6816858065361853 3.1964832754216 L-3.736684571976875 3.221203728491882 L-3.797318978463622 3.245478704290016 L-3.8687791897703345 3.2706941321071286 L-3.948562047891612 3.295138813532747 L-4.03649077613216 3.3181127128534986 L-4.134757405513653 3.339446124441896 L-4.241721448303743 3.3579935353124197 L-4.345315311368339 3.3716687490450026 A5.5 5.5 0 0 1 -4.549423811698461 3.0907374993761376 L-4.504405646366447 2.996439754305443 L-4.453712303388445 2.9004423695613015 L-4.4030569648236675 2.813577638082481 L-4.354036016849853 2.7370517734369337 L-4.306133484271979 2.668727588314639 L-4.260069767619945 2.6085568844114833 L-4.218245831655979 2.558391517070238 L-4.177739730486904 2.513723622917047 L-4.142296617309872 2.477841914090404 L-4.1119967691187185 2.4495976279497853 L-4.065762162703838 2.411348668883412 L-4.026704772846048 2.3849833356312686 L-3.977508540400571 2.3492208341363985 L-3.9382779674481543 2.3138559893633035 L-3.922353656198159 2.2965839654166644 L-3.908872782964806 2.279692744120788 L-3.8978032289236078 2.26328941600333 L-3.8891130449948292 2.2474587115564644 L-3.8827790224192245 2.232312261212845 L-3.8787737520220573 2.2179258853994037 L-3.877051834753353 2.2043886847685594 L-3.8775767816283793 2.1917942998777282 L-3.8803166435674012 2.180227461219084 L-3.8941044615859135 2.1537400439367516 L-3.964979032638237 2.0202577238409836 L-4.0313094704172 1.8844600521965431 L-4.044633965043133 1.8577365598543465 L-4.052381283648095 1.848721147804239 L-4.062261799027098 1.840893663160673 L-4.074225741969927 1.8343297566058274 L-4.0882188033613645 1.8291139888871248 L-4.104195584151437 1.8253354606569834 L-4.122110855034923 1.8230609125323411 L-4.141887946861126 1.8223747355158662 L-4.1634770904198275 1.8233525802897383 L-4.186810526625572 1.8260833777616234 L-4.238480439270852 1.8370346437719571 L-4.296329730641365 1.855814560915797 L-4.3406170910561555 1.8719154990092903 L-4.3987371687542165 1.8868379072724124 L-4.439397080149425 1.894749424531052 L-4.489258931598187 1.9023327661494727 L-4.549204905966109 1.908847760936918 L-4.6143730334266815 1.9131975728043975 L-4.690127728761682 1.9150964500256333 L-4.773559557849173 1.9136904645649468 L-4.864284073129063 1.9083684698985508 L-4.964333578065504 1.8982916915456765 L-5.071793893130938 1.882877620505305 L-5.174543385091789 1.8638712574374956 A5.5 5.5 0 0 1 -5.281849573963313 1.5336167665105889 L-5.209895148714566 1.4578456597323388 L-5.132018091241063 1.3822118259060105 L-5.056999323175122 1.3152519174691828 L-4.986729838484949 1.257619801237193 L-4.9200584884001115 1.2074423363962403 L-4.857655520443844 1.164451067628629 L-4.802376642570696 1.1296652751109126 L-4.750049912707859 1.099700656944453 L-4.705253451148409 1.0765276482543262 L-4.667708618672019 1.0590289038902339 L-4.611917316594145 1.0369392612390875 L-4.566624195423143 1.023933736467328 L-4.508784577255425 1.0051240482664896 L-4.460545747172719 0.9836129959386339 L-4.440063478264136 0.9721072078145414 L-4.4220227314940335 0.9602085206610351 L-4.406426052838067 0.9480287088848813 L-4.393269240077791 0.9356582287813842 L-4.382564716072266 0.9232104191019599 L-4.3743098429476985 0.9107658592585072 L-4.368488977257582 0.8984233180850851 L-4.365096352438818 0.8862831287604035 L-4.3641277662729605 0.8744357475797667 L-4.3690556983676165 0.8449840466905063 L-4.395213115648363 0.6961333694290276 L-4.416333322392075 0.5464848763958436 L-4.420747656549621 0.5169518295847625 L-4.425329878857908 0.5059836100976517 L-4.432307981615394 0.49548598265589266 L-4.441658008836819 0.4855462748654885 L-4.453354440192272 0.47626169121584816 L-4.46738163223525 0.4677310005410316 L-4.483717193325144 0.46003165356363557 L-4.5023142850205815 0.45326760296717455 L-4.523148951336303 0.44752617635765174 L-4.546184230714343 0.44291289076323176 L-4.598709365139151 0.43736128255878054 L-4.659530624210535 0.43734563098787566 L-4.706625870418801 0.4389729860759791 L-4.766512626791429 0.4352049479703447 L-4.807627293760038 0.43016464440205626 L-4.857392113929165 0.4219686713948813 L-4.916417367585025 0.40964047481705723 L-4.97974010565054 0.39363933286137176 L-5.05237388762044 0.3720357841540609 L-5.131287798939326 0.3449167594600382 L-5.215927353588095 0.3118198247249584 L-5.307966191450413 0.2713192417050351 L-5.405403814432547 0.2234525254233477 L-5.497251099118716 0.1736250607973413 A5.5 5.5 0 0 1 -5.497251099118716 -0.17362506079734075 L-5.405403814432546 -0.22345252542334715 L-5.307966191450412 -0.2713192417050345 L-5.215927353588095 -0.31181982472495784 L-5.131287798939326 -0.34491675946003764 L-5.05237388762044 -0.37203578415406036 L-4.97974010565054 -0.3936393328613712 L-4.916417367585025 -0.4096404748170567 L-4.857392113929165 -0.42196867139488076 L-4.807627293760038 -0.4301646444020557 L-4.766512626791429 -0.43520494797034415 L-4.706625870418801 -0.4389729860759787 L-4.659530624210535 -0.4373456309878751 L-4.598709365139151 -0.43736128255878 L-4.546184230714343 -0.4429128907632312 L-4.523148951336303 -0.4475261763576513 L-4.5023142850205815 -0.4532676029671741 L-4.483717193325144 -0.460031653563635 L-4.46738163223525 -0.46773100054103106 L-4.453354440192271 -0.4762616912158477 L-4.441658008836819 -0.48554627486548796 L-4.432307981615394 -0.4954859826558922 L-4.425329878857908 -0.5059836100976512 L-4.420747656549621 -0.5169518295847619 L-4.416333322392075 -0.5464848763958432 L-4.395213115648363 -0.6961333694290271 L-4.3690556983676165 -0.8449840466905059 L-4.3641277662729605 -0.8744357475797662 L-4.365096352438818 -0.886283128760403 L-4.368488977257582 -0.8984233180850847 L-4.3743098429476985 -0.9107658592585066 L-4.382564716072267 -0.9232104191019594 L-4.393269240077791 -0.9356582287813835 L-4.406426052838067 -0.9480287088848807 L-4.4220227314940335 -0.9602085206610347 L-4.440063478264136 -0.972107207814541 L-4.460545747172719 -0.9836129959386335 L-4.508784577255425 -1.005124048266489 L-4.566624195423143 -1.0239337364673273 L-4.611917316594145 -1.036939261239087 L-4.667708618672019 -1.0590289038902332 L-4.705253451148409 -1.0765276482543258 L-4.750049912707859 -1.0997006569444525 L-4.802376642570696 -1.129665275110912 L-4.857655520443844 -1.1644510676286286 L-4.9200584884001115 -1.2074423363962397 L-4.986729838484949 -1.2576198012371926 L-5.056999323175122 -1.3152519174691824 L-5.132018091241064 -1.3822118259060099 L-5.209895148714567 -1.4578456597323384 L-5.281849573963313 -1.5336167665105882 A5.5 5.5 0 0 1 -5.174543385091789 -1.8638712574374952 L-5.0717938931309385 -1.8828776205053046 L-4.964333578065505 -1.8982916915456762 L-4.864284073129063 -1.9083684698985504 L-4.773559557849174 -1.9136904645649468 L-4.6901277287616825 -1.915096450025633 L-4.614373033426682 -1.9131975728043973 L-4.54920490596611 -1.908847760936918 L-4.4892589315981875 -1.9023327661494722 L-4.439397080149426 -1.8947494245310517 L-4.3987371687542165 -1.886837907272412 L-4.3406170910561555 -1.8719154990092899 L-4.296329730641366 -1.8558145609157966 L-4.238480439270853 -1.8370346437719567 L-4.186810526625572 -1.8260833777616234 L-4.1634770904198275 -1.823352580289738 L-4.141887946861127 -1.822374735515866 L-4.122110855034923 -1.8230609125323407 L-4.104195584151437 -1.8253354606569834 L-4.088218803361365 -1.8291139888871244 L-4.0742257419699275 -1.8343297566058274 L-4.062261799027099 -1.8408936631606725 L-4.052381283648095 -1.8487211478042385 L-4.0446339650431335 -1.857736559854346 L-4.0313094704172 -1.8844600521965427 L-3.9649790326382375 -2.020257723840983 L-3.894104461585914 -2.153740043936751 L-3.8803166435674017 -2.1802274612190837 L-3.87757678162838 -2.191794299877728 L-3.8770518347533534 -2.204388684768559 L-3.8787737520220578 -2.2179258853994037 L-3.8827790224192253 -2.2323122612128445 L-3.8891130449948297 -2.2474587115564644 L-3.8978032289236078 -2.2632894160033294 L-3.908872782964807 -2.279692744120788 L-3.922353656198159 -2.296583965416664 L-3.9382779674481543 -2.3138559893633035 L-3.9775085404005717 -2.349220834136398 L-4.026704772846049 -2.384983335631268 L-4.065762162703838 -2.4113486688834116 L-4.1119967691187185 -2.4495976279497853 L-4.1422966173098725 -2.4778419140904036 L-4.177739730486905 -2.5137236229170465 L-4.21824583165598 -2.558391517070238 L-4.260069767619946 -2.6085568844114833 L-4.30613348427198 -2.6687275883146384 L-4.354036016849854 -2.7370517734369337 L-4.4030569648236675 -2.8135776380824806 L-4.453712303388446 -2.9004423695613015 L-4.504405646366448 -2.9964397543054426 L-4.549423811698461 -3.0907374993761376 A5.5 5.5 0 0 1 -4.345315311368339 -3.371668749045002 L-4.241721448303743 -3.357993535312419 L-4.134757405513653 -3.3394461244418956 L-4.03649077613216 -3.3181127128534977 L-3.948562047891612 -3.2951388135327466 L-3.8687791897703345 -3.2706941321071277 L-3.7973189784636214 -3.245478704290016 L-3.736684571976875 -3.2212037284918815 L-3.6816858065361853 -3.1964832754215995 L-3.636607749235543 -3.1738629294914418 L-3.600382668835356 -3.1537740258379316 L-3.5497184679633396 -3.1216218804973797 L-3.5125741487476105 -3.0926234314009196 L-3.4633595167770266 -3.0568862546797515 L-3.4176026369664454 -3.030504100673681 L-3.3962550832424236 -3.0206965296186237 L-3.3760247582326763 -3.0130951317208683 L-3.357003585818758 -3.007636267370108 L-3.3392622766787876 -3.0042633680238486 L-3.3228998257621307 -3.002919865139594 L-3.3079798726790948 -3.003556261242662 L-3.2945731281077983 -3.0061018456549338 L-3.282757373794171 -3.0104929787661026 L-3.272603320416332 -3.0166730920336726 L-3.25167295969321 -3.0379711482830114 L-3.146625176280137 -3.1466251762801365 L-3.037971148283012 -3.2516729596932095 L-3.016673092033673 -3.2726033204163314 L-3.010492978766103 -3.2827573737941704 L-3.006101845654934 -3.294573128107798 L-3.0035562612426627 -3.3079798726790948 L-3.0029198651395945 -3.3228998257621303 L-3.004263368023849 -3.339262276678787 L-3.0076362673701085 -3.3570035858187577 L-3.013095131720869 -3.3760247582326754 L-3.0206965296186246 -3.3962550832424228 L-3.0305041006736815 -3.417602636966445 L-3.056886254679752 -3.463359516777026 L-3.09262343140092 -3.51257414874761 L-3.12162188049738 -3.549718467963339 L-3.1537740258379325 -3.6003826688353553 L-3.173862929491443 -3.6366077492355426 L-3.1964832754216 -3.681685806536185 L-3.221203728491882 -3.7366845719768746 L-3.2454787042900164 -3.797318978463621 L-3.2706941321071286 -3.8687791897703336 L-3.295138813532747 -3.9485620478916115 L-3.3181127128534986 -4.036490776132159 L-3.339446124441896 -4.134757405513653 L-3.3579935353124197 -4.241721448303742 L-3.3716687490450026 -4.345315311368339 A5.5 5.5 0 0 1 -3.0907374993761376 -4.549423811698461 L-2.996439754305443 -4.504405646366447 L-2.9004423695613015 -4.453712303388445 L-2.813577638082481 -4.4030569648236675 L-2.737051773436934 -4.354036016849853 L-2.668727588314639 -4.306133484271978 L-2.6085568844114837 -4.260069767619945 L-2.5583915170702385 -4.218245831655979 L-2.5137236229170474 -4.177739730486904 L-2.477841914090404 -4.142296617309872 L-2.4495976279497853 -4.1119967691187185 L-2.411348668883412 -4.065762162703838 L-2.3849833356312686 -4.026704772846048 L-2.349220834136399 -3.977508540400571 L-2.313855989363304 -3.9382779674481543 L-2.296583965416665 -3.922353656198159 L-2.2796927441207884 -3.908872782964806 L-2.26328941600333 -3.8978032289236078 L-2.247458711556465 -3.8891130449948292 L-2.232312261212845 -3.8827790224192245 L-2.217925885399404 -3.8787737520220573 L-2.2043886847685594 -3.877051834753353 L-2.1917942998777282 -3.8775767816283793 L-2.180227461219084 -3.8803166435674012 L-2.1537400439367516 -3.8941044615859135 L-2.0202577238409836 -3.964979032638237 L-1.8844600521965431 -4.0313094704172 L-1.8577365598543465 -4.044633965043133 L-1.848721147804239 -4.052381283648095 L-1.840893663160673 -4.062261799027098 L-1.8343297566058279 -4.0742257419699275 L-1.8291139888871248 -4.0882188033613645 L-1.8253354606569838 -4.104195584151437 L-1.8230609125323411 -4.122110855034923 L-1.8223747355158666 -4.141887946861126 L-1.8233525802897388 -4.1634770904198275 L-1.8260833777616239 -4.186810526625572 L-1.8370346437719576 -4.238480439270852 L-1.855814560915797 -4.296329730641365 L-1.8719154990092903 -4.3406170910561555 L-1.8868379072724124 -4.3987371687542165 L-1.894749424531052 -4.439397080149425 L-1.902332766149473 -4.489258931598187 L-1.9088477609369185 -4.549204905966109 L-1.913197572804398 -4.6143730334266815 L-1.9150964500256333 -4.6901277287616825 L-1.9136904645649473 -4.773559557849173 L-1.9083684698985508 -4.864284073129063 L-1.898291691545677 -4.964333578065504 L-1.882877620505305 -5.071793893130938 L-1.8638712574374956 -5.174543385091789 A5.5 5.5 0 0 1 -1.533616766510589 -5.281849573963313 L-1.4578456597323393 -5.209895148714566 L-1.3822118259060105 -5.132018091241063 L-1.3152519174691828 -5.056999323175122 L-1.2576198012371933 -4.9867298384849486 L-1.2074423363962405 -4.9200584884001115 L-1.1644510676286293 -4.857655520443843 L-1.1296652751109129 -4.802376642570695 L-1.0997006569444532 -4.750049912707858 L-1.0765276482543267 -4.705253451148408 L-1.0590289038902339 -4.667708618672019 L-1.0369392612390878 -4.611917316594144 L-1.0239337364673282 -4.566624195423142 L-1.0051240482664898 -4.508784577255425 L-0.9836129959386342 -4.460545747172718 L-0.9721072078145416 -4.440063478264136 L-0.9602085206610352 -4.422022731494032 L-0.9480287088848814 -4.406426052838066 L-0.9356582287813843 -4.39326924007779 L-0.9232104191019602 -4.382564716072265 L-0.9107658592585074 -4.374309842947698 L-0.8984233180850852 -4.368488977257581 L-0.8862831287604038 -4.365096352438818 L-0.8744357475797668 -4.36412776627296 L-0.8449840466905065 -4.369055698367616 L-0.6961333694290279 -4.395213115648363 L-0.5464848763958441 -4.416333322392074 L-0.5169518295847628 -4.42074765654962 L-0.505983610097652 -4.425329878857908 L-0.49548598265589294 -4.432307981615393 L-0.48554627486548874 -4.441658008836818 L-0.4762616912158485 -4.453354440192271 L-0.4677310005410319 -4.4673816322352495 L-0.46003165356363585 -4.483717193325143 L-0.45326760296717483 -4.5023142850205815 L-0.44752617635765213 -4.523148951336303 L-0.442912890763232 -4.546184230714342 L-0.4373612825587808 -4.598709365139151 L-0.4373456309878759 -4.659530624210534 L-0.4389729860759795 -4.7066258704188 L-0.4352049479703449 -4.766512626791429 L-0.43016464440205665 -4.807627293760037 L-0.4219686713948816 -4.857392113929164 L-0.4096404748170576 -4.916417367585024 L-0.39363933286137204 -4.9797401056505395 L-0.3720357841540613 -5.05237388762044 L-0.34491675946003847 -5.131287798939325 L-0.3118198247249587 -5.215927353588095 L-0.2713192417050355 -5.307966191450413 L-0.22345252542334804 -5.405403814432547 L-0.17362506079734175 -5.497251099118716 A5.5 5.5 0 0 1 0.1736250607973403 -5.497251099118716 L0.2234525254233467 -5.405403814432546 L0.2713192417050341 -5.307966191450412 L0.3118198247249574 -5.215927353588094 L0.3449167594600372 -5.131287798939326 L0.3720357841540599 -5.05237388762044 L0.39363933286137076 -4.97974010565054 L0.40964047481705634 -4.916417367585025 L0.4219686713948803 -4.857392113929165 L0.4301646444020554 -4.807627293760038 L0.4352049479703438 -4.766512626791429 L0.43897298607597823 -4.706625870418801 L0.43734563098787477 -4.659530624210535 L0.43736128255877965 -4.598709365139151 L0.44291289076323087 -4.546184230714343 L0.44752617635765096 -4.523148951336303 L0.45326760296717367 -4.5023142850205815 L0.4600316535636347 -4.483717193325144 L0.46773100054103073 -4.46738163223525 L0.4762616912158474 -4.453354440192271 L0.4855462748654876 -4.441658008836819 L0.4954859826558918 -4.432307981615394 L0.5059836100976509 -4.425329878857908 L0.5169518295847616 -4.420747656549621 L0.546484876395843 -4.416333322392075 L0.6961333694290268 -4.395213115648363 L0.8449840466905054 -4.3690556983676165 L0.8744357475797658 -4.3641277662729605 L0.8862831287604027 -4.365096352438818 L0.8984233180850842 -4.368488977257582 L0.9107658592585063 -4.3743098429476985 L0.9232104191019591 -4.382564716072267 L0.9356582287813833 -4.393269240077791 L0.9480287088848804 -4.406426052838067 L0.9602085206610342 -4.4220227314940335 L0.9721072078145405 -4.440063478264136 L0.983612995938633 -4.460545747172719 L1.0051240482664887 -4.508784577255425 L1.023933736467327 -4.566624195423143 L1.0369392612390866 -4.611917316594145 L1.059028903890233 -4.667708618672019 L1.0765276482543253 -4.705253451148409 L1.099700656944452 -4.750049912707859 L1.1296652751109117 -4.802376642570696 L1.1644510676286282 -4.857655520443844 L1.2074423363962392 -4.9200584884001115 L1.2576198012371922 -4.986729838484949 L1.315251917469182 -5.0569993231751225 L1.3822118259060094 -5.132018091241064 L1.457845659732338 -5.209895148714567 L1.5336167665105878 -5.281849573963313 A5.5 5.5 0 0 1 1.8638712574374947 -5.174543385091789 L1.8828776205053042 -5.0717938931309385 L1.8982916915456753 -4.964333578065505 L1.90836846989855 -4.864284073129063 L1.913690464564946 -4.773559557849174 L1.9150964500256324 -4.6901277287616825 L1.9131975728043964 -4.614373033426682 L1.9088477609369172 -4.54920490596611 L1.9023327661494718 -4.4892589315981875 L1.8947494245310512 -4.439397080149426 L1.8868379072724115 -4.3987371687542165 L1.8719154990092894 -4.340617091056155 L1.855814560915796 -4.296329730641366 L1.8370346437719562 -4.238480439270853 L1.826083377761623 -4.186810526625572 L1.8233525802897375 -4.1634770904198275 L1.8223747355158655 -4.141887946861127 L1.8230609125323403 -4.122110855034923 L1.825335460656983 -4.104195584151437 L1.829113988887124 -4.088218803361365 L1.834329756605827 -4.0742257419699275 L1.840893663160672 -4.062261799027099 L1.848721147804238 -4.052381283648095 L1.8577365598543456 -4.0446339650431335 L1.8844600521965422 -4.0313094704172 L2.0202577238409827 -3.9649790326382375 L2.1537400439367507 -3.894104461585914 L2.1802274612190833 -3.8803166435674017 L2.1917942998777273 -3.87757678162838 L2.2043886847685585 -3.8770518347533534 L2.2179258853994033 -3.8787737520220578 L2.232312261212844 -3.8827790224192253 L2.247458711556464 -3.8891130449948297 L2.263289416003329 -3.8978032289236078 L2.2796927441207875 -3.908872782964807 L2.2965839654166635 -3.922353656198159 L2.313855989363303 -3.9382779674481543 L2.3492208341363976 -3.9775085404005717 L2.3849833356312677 -4.026704772846049 L2.411348668883411 -4.065762162703839 L2.449597627949785 -4.1119967691187185 L2.477841914090403 -4.1422966173098725 L2.513723622917046 -4.177739730486905 L2.558391517070237 -4.21824583165598 L2.6085568844114824 -4.260069767619946 L2.668727588314638 -4.30613348427198 L2.737051773436933 -4.354036016849854 L2.8135776380824806 -4.4030569648236675 L2.9004423695613006 -4.453712303388446 L2.996439754305442 -4.504405646366448 L3.0907374993761367 -4.549423811698461 A5.5 5.5 0 0 1 3.371668749045002 -4.345315311368339 L3.3579935353124184 -4.2417214483037435 L3.3394461244418956 -4.134757405513654 L3.3181127128534977 -4.03649077613216 L3.2951388135327466 -3.948562047891613 L3.2706941321071277 -3.868779189770335 L3.2454787042900155 -3.797318978463622 L3.2212037284918815 -3.7366845719768755 L3.1964832754215995 -3.6816858065361857 L3.1738629294914418 -3.6366077492355435 L3.1537740258379316 -3.6003826688353566 L3.1216218804973797 -3.5497184679633405 L3.0926234314009196 -3.5125741487476114 L3.0568862546797515 -3.463359516777027 L3.030504100673681 -3.417602636966446 L3.0206965296186237 -3.396255083242424 L3.0130951317208683 -3.376024758232677 L3.007636267370108 -3.3570035858187586 L3.0042633680238486 -3.339262276678788 L3.002919865139594 -3.322899825762131 L3.003556261242662 -3.307979872679095 L3.0061018456549338 -3.294573128107799 L3.010492978766102 -3.2827573737941713 L3.0166730920336726 -3.2726033204163323 L3.0379711482830114 -3.2516729596932104 L3.1466251762801365 -3.1466251762801374 L3.2516729596932095 -3.0379711482830123 L3.2726033204163314 -3.0166730920336735 L3.282757373794171 -3.0104929787661034 L3.294573128107798 -3.0061018456549347 L3.3079798726790948 -3.003556261242663 L3.3228998257621303 -3.002919865139595 L3.339262276678787 -3.0042633680238495 L3.3570035858187577 -3.007636267370109 L3.3760247582326754 -3.0130951317208696 L3.3962550832424228 -3.020696529618625 L3.417602636966445 -3.030504100673682 L3.463359516777026 -3.0568862546797524 L3.51257414874761 -3.092623431400921 L3.549718467963339 -3.121621880497381 L3.6003826688353553 -3.153774025837933 L3.6366077492355426 -3.1738629294914436 L3.681685806536185 -3.1964832754216004 L3.7366845719768746 -3.2212037284918824 L3.7973189784636214 -3.245478704290017 L3.8687791897703336 -3.270694132107129 L3.9485620478916115 -3.295138813532748 L4.036490776132159 -3.318112712853499 L4.134757405513653 -3.3394461244418965 L4.241721448303742 -3.35799353531242 L4.345315311368339 -3.371668749045003 A5.5 5.5 0 0 1 4.549423811698461 -3.0907374993761385 L4.504405646366447 -2.9964397543054435 L4.453712303388445 -2.9004423695613024 L4.4030569648236675 -2.8135776380824815 L4.354036016849853 -2.7370517734369346 L4.306133484271978 -2.6687275883146393 L4.260069767619945 -2.608556884411484 L4.218245831655979 -2.5583915170702385 L4.177739730486904 -2.5137236229170474 L4.142296617309872 -2.4778419140904044 L4.1119967691187185 -2.449597627949786 L4.065762162703838 -2.4113486688834125 L4.026704772846048 -2.384983335631269 L3.977508540400571 -2.349220834136399 L3.9382779674481543 -2.313855989363304 L3.922353656198159 -2.296583965416665 L3.908872782964806 -2.2796927441207884 L3.8978032289236078 -2.2632894160033303 L3.8891130449948292 -2.247458711556465 L3.8827790224192245 -2.2323122612128454 L3.8787737520220573 -2.2179258853994046 L3.877051834753353 -2.20438868476856 L3.8775767816283793 -2.1917942998777287 L3.8803166435674012 -2.1802274612190846 L3.8941044615859135 -2.153740043936752 L3.964979032638237 -2.020257723840984 L4.0313094704172 -1.8844600521965436 L4.044633965043133 -1.857736559854347 L4.052381283648095 -1.8487211478042394 L4.062261799027098 -1.8408936631606734 L4.0742257419699275 -1.8343297566058283 L4.0882188033613645 -1.8291139888871253 L4.104195584151437 -1.8253354606569838 L4.122110855034923 -1.8230609125323416 L4.141887946861126 -1.8223747355158666 L4.1634770904198275 -1.8233525802897388 L4.186810526625572 -1.8260833777616239 L4.238480439270852 -1.8370346437719576 L4.296329730641365 -1.8558145609157974 L4.3406170910561555 -1.8719154990092908 L4.3987371687542165 -1.8868379072724129 L4.439397080149425 -1.8947494245310526 L4.489258931598187 -1.902332766149473 L4.549204905966109 -1.9088477609369185 L4.6143730334266815 -1.9131975728043984 L4.6901277287616825 -1.9150964500256338 L4.773559557849173 -1.9136904645649477 L4.864284073129063 -1.9083684698985512 L4.964333578065504 -1.8982916915456773 L5.071793893130938 -1.8828776205053055 L5.174543385091789 -1.863871257437496 A5.5 5.5 0 0 1 5.281849573963313 -1.5336167665105882 Z" id="SvgjsPath1196">
        </path>
      </g>
    </g>
  </g>
</svg>
