<?xml version="1.0" encoding="UTF-8" standalone="no"?>
<!-- Created with Inkscape (http://www.inkscape.org/) -->

<svg
   width="120mm"
   height="34.358002mm"
   viewBox="0 0 453.54333 129.85702"
   version="1.1"
   id="svg1"
   xml:space="preserve"
   xmlns="http://www.w3.org/2000/svg"
   xmlns:svg="http://www.w3.org/2000/svg"><defs
     id="defs1" /><g
     id="g1"
     transform="translate(998.77191,-482.09127)"><path
       style="fill:none;stroke:#f00000;stroke-width:0.57061;stroke-dasharray:none;stroke-opacity:1"
       d="m -978.55984,482.37764 h 79.58571 c -4.70965,7.87595 0.66007,15.81363 8.01863,15.70443 10.31003,-0.15295 12.93857,-10.39338 9.3047,-15.70443 h 89.36501 l 0.0734,3.26528 19.86044,-0.18998 c 0,0 1.72194,14.70702 17.36092,10.74012 12.79188,-3.24472 11.45738,-13.59889 11.45738,-13.59889 l 76.54884,-0.21653 c -2.82117,10.63294 4.02166,15.71207 7.855,15.52963 3.95206,-0.18808 12.6827,-0.57579 10.19619,-15.52963 h 75.22592 l 4.94786,6.43481 c 0,0 -14.46848,23.71879 14.07314,22.53285 l 9.17277,-0.23783 v 92.97832 c 0,0 -0.39682,5.63045 -5.2987,6.18389 -4.90188,0.55343 -69.41699,3e-5 -69.41699,3e-5 0,0 -10.26804,-2.61846 -18.02627,-15.75045 -23.01767,-38.96082 -99.31522,-39.18404 -111.98498,15.75045 h -44.50096 c -9.16013,-32.4709 -72.08766,-76.3025 -118.40832,-12.29856 0,0 -1.67718,9.16784 -17.10717,12.29856 -15.42997,3.13073 -63.06164,0 -63.06164,0 0,0 -5.58896,-4.24814 -5.14162,-7.15522 0.44722,-2.90711 0,-91.23815 0,-91.23815 0,0 14.981,2.45985 17.88816,-9.16854 2.90705,-11.6284 -2.90716,-14.98274 -2.90716,-14.98274 z"
       id="path2" /><circle
       style="fill:none;stroke:#f00000;stroke-width:0.491509;stroke-dasharray:none;stroke-opacity:1"
       id="path3"
       cx="-730.45654"
       cy="500.1134"
       r="8.8037825" /><circle
       style="fill:none;stroke:#f00000;stroke-width:0.643902;stroke-dasharray:none;stroke-opacity:1"
       id="path4"
       cx="-700.05865"
       cy="514.61053"
       r="8.7275867" /></g></svg>
